<svg id="Layer_5" data-name="Layer 5" xmlns="http://www.w3.org/2000/svg" viewBox="0 0 180.68 131.31"><defs><style>.cls-1{fill:#b29d4c;}.cls-2{fill:#5c8191;}.cls-3{fill:#cacac0;}.cls-4{fill:#877566;}.cls-5{fill:#eff8fc;}.cls-6{fill:#b3b4af;}.cls-10,.cls-7{fill:none;stroke-miterlimit:10;}.cls-7{stroke:#f45e36;stroke-width:0.5px;}.cls-8{fill:#cacabf;}.cls-9{fill:#7a5f49;}.cls-10{stroke:#000;}</style></defs><title>house4</title><path class="cls-1" d="M938.75,38.25a4.13,4.13,0,0,1,2.76.65,12.74,12.74,0,0,0,4.82,1.48,5.58,5.58,0,0,0,2.1-.24,3.84,3.84,0,0,0,1.41-.84,4.43,4.43,0,0,0,1.2-1.75,4.36,4.36,0,0,0,.17-0.59,2.66,2.66,0,0,0-.17-1.79,2.63,2.63,0,0,0-.45-0.67,3.15,3.15,0,0,0-.75-0.58,7.65,7.65,0,0,0-3.51-.55,8,8,0,0,1-3-.45,5.29,5.29,0,0,1-2.86-4.22,15.78,15.78,0,0,1,.48-5.29l-3.72.67V18.81h49l-0.59-1.67,2.89-1.1A8.55,8.55,0,0,0,984,10.62a25.28,25.28,0,0,0-7-2.06l-0.65,0a5.74,5.74,0,0,0,5.2-5.27A3.16,3.16,0,0,0,980,.21c-2.42-1.12-4.58,2.56-7.25,2.59-1.64,0-3.21-1.38-4.77-.86-1.14.38-1.83,1.7-3,1.91a16.5,16.5,0,0,1-2.41-.23c-3,.08-3.67,5.29-6.65,5.41-1.3.05-2.95-.84-3.67,0.24a2.79,2.79,0,0,0-.31,1.12,5.12,5.12,0,0,1-2.27,3.41,9.63,9.63,0,0,1-3.19,1.12,216.3,216.3,0,0,1-27.85,4.4,5.46,5.46,0,0,0-10-.14c-0.66,1.45-.87,3.39-2.34,4-0.78.32-1.72,0.15-2.45,0.57-1.1.63-1.18,2.27-2.17,3.07s-2.64.37-3.8-.33-2.31-1.62-3.66-1.6c-0.94,0-1.84.49-2.77,0.43a5.48,5.48,0,0,1-3-1.71c-1.46-1.27-3.25-2.39-5.17-2.24s-3.75,2.15-3,4,3.08,2.1,5,2.12,4.35,0.42,4.93,2.27a1.55,1.55,0,0,1,0,1.14,2.56,2.56,0,0,1-1.07.93,13.18,13.18,0,0,0-5.51,6.75,3.44,3.44,0,0,0-.15,2.5,3.44,3.44,0,0,0,1.76,1.51,12.76,12.76,0,0,0,6.94,1.15,4.53,4.53,0,0,0,4.07,5.15c4.6,0.19,6.82-6.37,11.35-7.21a7.19,7.19,0,0,1,1.61-.09l3.66,0.14a3.9,3.9,0,0,0,1.79-.58c1.39-.89,2-2.74,3.43-3.53,1.8-1,4.12.07,6-.65a3.43,3.43,0,0,0,1.09-.65,9.54,9.54,0,0,0,2.25-3.55c1.11,0.51,1.07,2.06,1.28,3.26a3,3,0,0,0,.13.52c1,3.15,5.34,4.82,8.09,2.91l0.33-.24A4.48,4.48,0,0,1,938.75,38.25Z" transform="translate(-878.14)"/><path class="cls-2" d="M969.66,50.39v7.67h8.66V71.23h-8.66V86.89h8.66v14.84h-8.66v15.66H1027v13.92H937.24V84.54h4.42V68.09h-4.42V51.65h4.42v-4.9h-4.42V39.17a4.48,4.48,0,0,1,1.51-.92,4.13,4.13,0,0,1,2.76.65,12.74,12.74,0,0,0,4.82,1.48,5.58,5.58,0,0,0,2.1-.24,3.84,3.84,0,0,0,1.41-.84,4.43,4.43,0,0,0,1.2-1.75,4.36,4.36,0,0,0,.17-0.59,2.66,2.66,0,0,0-.17-1.79,2.63,2.63,0,0,0-.45-0.67,3.15,3.15,0,0,0-.75-0.58,7.65,7.65,0,0,0-3.51-.55,8,8,0,0,1-3-.45,5.29,5.29,0,0,1-2.86-4.22,15.78,15.78,0,0,1,.48-5.29l-3.72.67V18.81H1027V50.39H969.66Z" transform="translate(-878.14)"/><rect class="cls-3" x="136.1" y="101.73" width="35.25" height="15.66"/><rect class="cls-4" x="98.93" y="86.89" width="1.25" height="14.84"/><rect class="cls-4" x="98.93" y="58.06" width="1.25" height="13.17"/><rect class="cls-4" x="156.93" y="58.06" width="1.25" height="13.17"/><rect class="cls-5" x="100.18" y="58.06" width="56.75" height="13.17"/><rect class="cls-5" x="100.18" y="86.89" width="66.92" height="14.84"/><rect class="cls-4" x="167.1" y="86.89" width="1.25" height="14.84"/><rect class="cls-6" x="91.52" y="50.39" width="69.66" height="7.67"/><rect class="cls-6" x="91.52" y="71.23" width="89.16" height="15.66"/><rect class="cls-6" x="91.52" y="101.73" width="44.58" height="15.66"/><path class="cls-7" d="M951.19,35.57H951v-0.4A3.26,3.26,0,0,1,951.19,35.57Z" transform="translate(-878.14)"/><path class="cls-7" d="M951.21,37a4.36,4.36,0,0,1-.17.59V37h0.17Z" transform="translate(-878.14)"/><rect class="cls-8" x="68.19" y="115.31" width="3.51" height="3.51"/><rect class="cls-8" x="72.9" y="115.31" width="3.51" height="3.51"/><rect class="cls-8" x="77.6" y="115.31" width="3.51" height="3.51"/><rect class="cls-8" x="82.31" y="115.31" width="3.51" height="3.51"/><rect class="cls-8" x="68.19" y="110.41" width="3.51" height="3.51"/><rect class="cls-8" x="72.9" y="110.41" width="3.51" height="3.51"/><rect class="cls-8" x="77.6" y="110.41" width="3.51" height="3.51"/><rect class="cls-8" x="82.31" y="110.41" width="3.51" height="3.51"/><rect class="cls-8" x="68.19" y="105.52" width="3.51" height="3.51"/><rect class="cls-8" x="72.9" y="105.52" width="3.51" height="3.51"/><rect class="cls-8" x="77.6" y="105.52" width="3.51" height="3.51"/><rect class="cls-8" x="82.31" y="105.52" width="3.51" height="3.51"/><rect class="cls-8" x="68.19" y="100.62" width="3.51" height="3.51"/><rect class="cls-8" x="72.9" y="100.62" width="3.51" height="3.51"/><rect class="cls-8" x="77.6" y="100.62" width="3.51" height="3.51"/><rect class="cls-8" x="82.31" y="100.62" width="3.51" height="3.51"/><rect class="cls-8" x="68.19" y="95.72" width="3.51" height="3.51"/><rect class="cls-8" x="72.9" y="95.72" width="3.51" height="3.51"/><rect class="cls-8" x="77.6" y="95.72" width="3.51" height="3.51"/><rect class="cls-8" x="82.31" y="95.72" width="3.51" height="3.51"/><rect class="cls-8" x="68.19" y="90.83" width="3.51" height="3.51"/><rect class="cls-8" x="72.9" y="90.83" width="3.51" height="3.51"/><rect class="cls-8" x="77.6" y="90.83" width="3.51" height="3.51"/><rect class="cls-8" x="82.31" y="90.83" width="3.51" height="3.51"/><rect class="cls-8" x="68.19" y="85.93" width="3.51" height="3.51"/><rect class="cls-8" x="72.9" y="85.93" width="3.51" height="3.51"/><rect class="cls-8" x="77.6" y="85.93" width="3.51" height="3.51"/><rect class="cls-8" x="82.31" y="85.93" width="3.51" height="3.51"/><rect class="cls-8" x="68.19" y="81.03" width="3.51" height="3.51"/><rect class="cls-8" x="72.9" y="81.03" width="3.51" height="3.51"/><rect class="cls-8" x="77.6" y="81.03" width="3.51" height="3.51"/><rect class="cls-8" x="82.31" y="81.03" width="3.51" height="3.51"/><rect class="cls-8" x="68.19" y="76.13" width="3.51" height="3.51"/><rect class="cls-8" x="72.9" y="76.13" width="3.51" height="3.51"/><rect class="cls-8" x="77.6" y="76.13" width="3.51" height="3.51"/><rect class="cls-8" x="82.31" y="76.13" width="3.51" height="3.51"/><rect class="cls-8" x="68.19" y="71.24" width="3.51" height="3.51"/><rect class="cls-8" x="72.9" y="71.24" width="3.51" height="3.51"/><rect class="cls-8" x="77.6" y="71.24" width="3.51" height="3.51"/><rect class="cls-8" x="82.31" y="71.24" width="3.51" height="3.51"/><rect class="cls-8" x="68.19" y="66.34" width="3.51" height="3.51"/><rect class="cls-8" x="72.9" y="66.34" width="3.51" height="3.51"/><rect class="cls-8" x="77.6" y="66.34" width="3.51" height="3.51"/><rect class="cls-8" x="82.31" y="66.34" width="3.51" height="3.51"/><rect class="cls-8" x="68.19" y="61.44" width="3.51" height="3.51"/><rect class="cls-8" x="72.9" y="61.44" width="3.51" height="3.51"/><rect class="cls-8" x="77.6" y="61.44" width="3.51" height="3.51"/><rect class="cls-8" x="82.31" y="61.44" width="3.51" height="3.51"/><rect class="cls-8" x="68.19" y="56.55" width="3.51" height="3.51"/><rect class="cls-8" x="72.9" y="56.55" width="3.51" height="3.51"/><rect class="cls-8" x="77.6" y="56.55" width="3.51" height="3.51"/><rect class="cls-8" x="82.31" y="56.55" width="3.51" height="3.51"/><rect class="cls-8" x="68.19" y="51.65" width="3.51" height="3.51"/><rect class="cls-8" x="72.9" y="51.65" width="3.51" height="3.51"/><rect class="cls-8" x="77.6" y="51.65" width="3.51" height="3.51"/><rect class="cls-8" x="82.31" y="51.65" width="3.51" height="3.51"/><rect class="cls-8" x="68.19" y="46.75" width="3.51" height="3.51"/><rect class="cls-8" x="72.9" y="46.75" width="3.51" height="3.51"/><rect class="cls-8" x="77.6" y="46.75" width="3.51" height="3.51"/><rect class="cls-8" x="82.31" y="46.75" width="3.51" height="3.51"/><rect class="cls-8" x="68.19" y="41.86" width="3.51" height="3.51"/><rect class="cls-8" x="72.9" y="41.86" width="3.51" height="3.51"/><rect class="cls-8" x="77.6" y="41.86" width="3.51" height="3.51"/><rect class="cls-8" x="82.31" y="41.86" width="3.51" height="3.51"/><path class="cls-8" d="M949.84,39.3v1.16h-3.51V40.38a5.58,5.58,0,0,0,2.1-.24A3.84,3.84,0,0,0,949.84,39.3Z" transform="translate(-878.14)"/><rect class="cls-8" x="72.9" y="36.96" width="3.5" height="3.5"/><rect class="cls-8" x="77.6" y="36.96" width="3.51" height="3.51"/><rect class="cls-8" x="82.31" y="36.96" width="3.51" height="3.51"/><path class="cls-8" d="M949.84,32.06v1.86a7.65,7.65,0,0,0-3.51-.55V32.06h3.51Z" transform="translate(-878.14)"/><rect class="cls-8" x="72.9" y="32.06" width="3.5" height="3.51"/><rect class="cls-8" x="77.6" y="32.06" width="3.51" height="3.51"/><rect class="cls-8" x="82.31" y="32.06" width="3.51" height="3.51"/><path class="cls-6" d="M941.66,46.75v4.9h-16.5a3.2,3.2,0,0,0-2-1.32,3.33,3.33,0,0,0-3.08,1.07,1.89,1.89,0,0,0-1.2-1.83l-0.09,0v-2.8h22.84Z" transform="translate(-878.14)"/><path class="cls-6" d="M941.66,68.09V84.54H922.82a0.2,0.2,0,0,1,0-.07,6.32,6.32,0,0,0,.28-2c-0.27-1.53-2.4-1.81-3.87-1.31s-3,1.43-4.46,1a12.38,12.38,0,0,0-1.54-.57,3.11,3.11,0,0,0-2.24.78,8.65,8.65,0,0,0-2,2.19h-2.48V68.09h35.17Z" transform="translate(-878.14)"/><path class="cls-9" d="M928.82,36.5V46.75h-3.66V36.27a9.54,9.54,0,0,0,2.25-3.55c1.11,0.51,1.07,2.06,1.28,3.26A3,3,0,0,0,928.82,36.5Z" transform="translate(-878.14)"/><path class="cls-9" d="M928.82,51.65v8.43c-0.8-.38-1.74-0.53-2.56-0.88a5.75,5.75,0,0,1-1.1-.64v-3a4.28,4.28,0,0,0,.63-1.92,3.19,3.19,0,0,0-.63-2h3.66Z" transform="translate(-878.14)"/><path class="cls-9" d="M928.82,65.81v2.28h-3.66V66.38a5.18,5.18,0,0,0,3.14-.28A3.81,3.81,0,0,0,928.82,65.81Z" transform="translate(-878.14)"/><path class="cls-9" d="M928.82,84.54V87c-0.16.17-.32,0.34-0.49,0.5a5.26,5.26,0,0,1-3.17,1.36V84.54h3.66Z" transform="translate(-878.14)"/><path class="cls-9" d="M927.56,92.9a5.35,5.35,0,0,0,1.26-.76v39.17h-3.66V93.43A7.14,7.14,0,0,0,927.56,92.9Z" transform="translate(-878.14)"/><path class="cls-9" d="M912.82,41.68V52.41c-0.3,0-.6-0.07-0.9-0.11a8.82,8.82,0,0,0-2.76.11V41.54A26.7,26.7,0,0,0,912.82,41.68Z" transform="translate(-878.14)"/><path class="cls-9" d="M912.69,65.85l0.13,0v2.29h-3.66V66.23A7.22,7.22,0,0,0,912.69,65.85Z" transform="translate(-878.14)"/><path class="cls-9" d="M912.82,101.6v29.71h-3.66V101.74A5.93,5.93,0,0,0,912.82,101.6Z" transform="translate(-878.14)"/><path class="cls-1" d="M928.82,65.81a3.81,3.81,0,0,1-.52.29,5.18,5.18,0,0,1-3.14.28A9.13,9.13,0,0,1,922,65.05c-1.87-1.22-3.42-2.88-5.29-4.09a6.48,6.48,0,0,1-3.86,4.84l-0.13,0a7.22,7.22,0,0,1-3.53.38,15,15,0,0,1-6.46-2.86,3.39,3.39,0,0,1-.66,4.15A6.18,6.18,0,0,1,897.86,69c-2,.06-4.2-0.65-4.92-2.47l-3.88,3.06a1.9,1.9,0,0,1-1.82.59c-0.68-.28-0.77-1.18-0.92-1.9-0.51-2.42-2.71-4.59-2-7a4.22,4.22,0,0,1,3.25-2.7,12.53,12.53,0,0,1,4.4.11c0.09-.65.17-1.3,0.25-1.94a2.5,2.5,0,0,1,2.54,1.4,10.67,10.67,0,0,0,1.65,2.62c0.78,0.7,2.24.78,2.68-.16,0.57-1.21-1.08-2.57-.64-3.83,1.36-.46,3,0.53,4.23-0.18a4.52,4.52,0,0,0,1.08-1.1,9.44,9.44,0,0,1,5.43-3.16,8.82,8.82,0,0,1,2.76-.11c0.3,0,.6.09,0.9,0.11a2.53,2.53,0,0,0,.91-0.07,4.78,4.78,0,0,0,1.87-1.52,3.51,3.51,0,0,1,3.22-1.27l0.09,0a1.89,1.89,0,0,1,1.2,1.83,3.33,3.33,0,0,1,3.08-1.07,3.37,3.37,0,0,1,2.6,3.36,4.28,4.28,0,0,1-.63,1.92,12.29,12.29,0,0,1-1.2,1.66,5.25,5.25,0,0,0,1.2,1.29,5.75,5.75,0,0,0,1.1.64c0.82,0.35,1.76.5,2.56,0.88a3.18,3.18,0,0,1,.89.56C931.2,62,930.5,64.67,928.82,65.81Z" transform="translate(-878.14)"/><path class="cls-10" d="M924,57.27l-0.14-.22" transform="translate(-878.14)"/><path class="cls-1" d="M932.16,85.94c-0.55,2.32-1.53,4.78-3.34,6.2a5.35,5.35,0,0,1-1.26.76,7.14,7.14,0,0,1-2.4.53c-2.59.16-5.39-.59-7.74,0.52a12.22,12.22,0,0,1,3.35,5.42c-1.92,1.26-4.16,1.27-6.39,1.82l-1.56.41a5.93,5.93,0,0,1-3.66.14,2.84,2.84,0,0,1-1-.64c-1.65-1.59-2.08-4.1-3.61-5.8A17.24,17.24,0,0,1,892.38,100c0.31-1.37.32-3.28-1-3.65a5.07,5.07,0,0,1-3.81,3.88,10.5,10.5,0,0,1-5.68-.39c-2-.58-4.2-2.14-3.63-4.1l1,0.51L882.07,94a1.25,1.25,0,0,1,.83-0.36,1.65,1.65,0,0,1,.92.78,2.66,2.66,0,0,0,3.4.51,3.7,3.7,0,0,1,.56-3.66,10.73,10.73,0,0,1,2.94-2.5l3.16-2.1c1.73-1.15,3.65-2.35,5.73-2.16,2.48,0.22,4.38,2.43,5.19,4.78a7.76,7.76,0,0,0,.92,2.17,1.84,1.84,0,0,0,2.05.77,9.37,9.37,0,0,1,1.2-7.67,8.65,8.65,0,0,1,2-2.19,3.11,3.11,0,0,1,2.24-.78,12.38,12.38,0,0,1,1.54.57c1.49,0.45,3-.47,4.46-1s3.6-.22,3.87,1.31a6.32,6.32,0,0,1-.28,2,0.2,0.2,0,0,0,0,.07c0,0.63.81,0.91,0.86,1.56s-1.18.36-1.18,0.36a3,3,0,0,0,.48,2.11,5.05,5.05,0,0,0,2.18.28,5.26,5.26,0,0,0,3.17-1.36c0.17-.16.33-0.33,0.49-0.5a6.65,6.65,0,0,1,1.2-1.11A1.7,1.7,0,0,1,932.16,85.94Z" transform="translate(-878.14)"/></svg>