<svg id="Layer_15" data-name="Layer 15" xmlns="http://www.w3.org/2000/svg" viewBox="0 0 175 75.71"><defs><style>.cls-1{fill:#c8b87a;}.cls-2{fill:#909090;}.cls-3{fill:#eeedef;}.cls-3,.cls-4{stroke:#595856;stroke-width:0.5px;}.cls-13,.cls-14,.cls-3,.cls-4,.cls-7{stroke-miterlimit:10;}.cls-13,.cls-14,.cls-4,.cls-7{fill:none;}.cls-5{fill:#f6fbff;}.cls-6{fill:#aeb5b3;}.cls-7{stroke:#aeb5b3;}.cls-13,.cls-7{stroke-width:0.75px;}.cls-8{fill:#4d4d4c;}.cls-9{fill:#b2b3ad;}.cls-10{fill:#a9aeb0;}.cls-11{fill:#f4fafc;}.cls-12{fill:#b4b2b3;}.cls-13,.cls-14{stroke:#73716f;}.cls-14{stroke-width:0.45px;}.cls-15{fill:#f2f1f2;}.cls-16{fill:#565553;}.cls-17{fill:#072332;}</style></defs><title>house14</title><rect class="cls-1" x="67.5" y="39" width="40" height="36.33"/><path class="cls-2" d="M1445.24,312.73h70.08V279.4h-53.58S1457.24,302.65,1445.24,312.73Z" transform="translate(-1445.24 -273.73)"/><rect class="cls-1" x="7.92" y="39" width="52.67" height="32.83"/><rect class="cls-3" x="15.58" y="44.67" width="10.25" height="20.67"/><line class="cls-4" x1="20.71" y1="44.67" x2="20.71" y2="65.33"/><line class="cls-4" x1="25.83" y1="51.33" x2="15.58" y2="51.33"/><line class="cls-4" x1="25.83" y1="58.83" x2="15.58" y2="58.83"/><rect class="cls-3" x="43.25" y="44.67" width="10.25" height="20.67"/><line class="cls-4" x1="48.37" y1="44.67" x2="48.37" y2="65.33"/><line class="cls-4" x1="53.5" y1="51.33" x2="43.25" y2="51.33"/><line class="cls-4" x1="53.5" y1="58.83" x2="43.25" y2="58.83"/><rect class="cls-5" x="21.08" y="10.13" width="12.79" height="20.67"/><path class="cls-6" d="M1478.74,284.23v19.92h-12V284.23h12m0.75-.75h-13.54V304.9h13.54V283.48h0Z" transform="translate(-1445.24 -273.73)"/><line class="cls-7" x1="27.48" y1="9.75" x2="27.48" y2="31.17"/><polygon class="cls-8" points="34.25 9.75 20.71 9.75 27.48 5.67 34.25 9.75"/><rect class="cls-5" x="41.98" y="10.13" width="12.79" height="20.67"/><path class="cls-6" d="M1499.64,284.23v19.92h-12V284.23h12m0.75-.75h-13.54V304.9h13.54V283.48h0Z" transform="translate(-1445.24 -273.73)"/><line class="cls-7" x1="48.38" y1="9.75" x2="48.38" y2="31.17"/><polygon class="cls-8" points="55.15 9.75 41.6 9.75 48.38 5.67 55.15 9.75"/><path class="cls-2" d="M1620.24,312.73h-70.08V279.4h53.58S1608.24,302.65,1620.24,312.73Z" transform="translate(-1445.24 -273.73)"/><rect class="cls-1" x="1559.66" y="312.73" width="52.67" height="32.83" transform="translate(1726.74 384.56) rotate(-180)"/><rect class="cls-3" x="1594.41" y="318.4" width="10.25" height="20.67" transform="translate(1753.82 383.73) rotate(-180)"/><line class="cls-4" x1="154.29" y1="44.67" x2="154.29" y2="65.33"/><line class="cls-4" x1="149.17" y1="51.33" x2="159.42" y2="51.33"/><line class="cls-4" x1="149.17" y1="58.83" x2="159.42" y2="58.83"/><rect class="cls-3" x="1566.74" y="318.4" width="10.25" height="20.67" transform="translate(1698.49 383.73) rotate(-180)"/><line class="cls-4" x1="126.62" y1="44.67" x2="126.62" y2="65.33"/><line class="cls-4" x1="121.5" y1="51.33" x2="131.75" y2="51.33"/><line class="cls-4" x1="121.5" y1="58.83" x2="131.75" y2="58.83"/><rect class="cls-5" x="141.12" y="10.13" width="12.79" height="20.67"/><path class="cls-6" d="M1598.78,284.23v19.92h-12V284.23h12m0.75-.75H1586V304.9h13.54V283.48h0Z" transform="translate(-1445.24 -273.73)"/><line class="cls-7" x1="147.52" y1="9.75" x2="147.52" y2="31.17"/><polygon class="cls-8" points="140.75 9.75 154.29 9.75 147.52 5.67 140.75 9.75"/><rect class="cls-5" x="120.23" y="10.13" width="12.79" height="20.67"/><path class="cls-6" d="M1577.89,284.23v19.92h-12V284.23h12m0.75-.75h-13.54V304.9h13.54V283.48h0Z" transform="translate(-1445.24 -273.73)"/><line class="cls-7" x1="126.62" y1="9.75" x2="126.62" y2="31.17"/><polygon class="cls-8" points="119.85 9.75 133.4 9.75 126.63 5.67 119.85 9.75"/><rect class="cls-9" x="16.5" width="141.92" height="5.67"/><path class="cls-10" d="M1514.16,279.4h36.5c6.33,22.67,16.5,33.33,16.5,33.33h-68.42S1510.66,298.06,1514.16,279.4Z" transform="translate(-1445.24 -273.73)"/><path class="cls-2" d="M1517.09,282h30.81c5.35,19.13,13.93,28.14,13.93,28.14h-57.75S1514.13,297.75,1517.09,282Z" transform="translate(-1445.24 -273.73)"/><rect class="cls-11" x="81.5" y="12.58" width="5.31" height="9.31"/><rect class="cls-11" x="87.71" y="12.58" width="5.31" height="9.31"/><rect class="cls-11" x="81.5" y="23.33" width="5.31" height="9.31"/><rect class="cls-11" x="87.71" y="23.33" width="5.31" height="9.31"/><rect class="cls-12" x="60.58" y="39" width="6.92" height="36.33"/><line class="cls-13" x1="60.58" y1="75.33" x2="67.5" y2="75.33"/><line class="cls-13" x1="60.58" y1="71.3" x2="67.5" y2="71.3"/><line class="cls-13" x1="60.58" y1="59.19" x2="67.5" y2="59.19"/><line class="cls-13" x1="60.58" y1="63.22" x2="67.5" y2="63.22"/><line class="cls-13" x1="60.58" y1="67.26" x2="67.5" y2="67.26"/><line class="cls-13" x1="60.58" y1="55.15" x2="67.5" y2="55.15"/><line class="cls-13" x1="60.58" y1="51.11" x2="67.5" y2="51.11"/><line class="cls-13" x1="60.58" y1="47.07" x2="67.5" y2="47.07"/><line class="cls-13" x1="60.58" y1="43.04" x2="67.5" y2="43.04"/><line class="cls-13" x1="60.58" y1="39" x2="67.5" y2="39"/><rect class="cls-12" x="107.5" y="39" width="6.92" height="36.33"/><line class="cls-13" x1="107.5" y1="75.33" x2="114.42" y2="75.33"/><line class="cls-13" x1="107.5" y1="71.3" x2="114.42" y2="71.3"/><line class="cls-13" x1="107.5" y1="59.19" x2="114.42" y2="59.19"/><line class="cls-13" x1="107.5" y1="63.22" x2="114.42" y2="63.22"/><line class="cls-13" x1="107.5" y1="67.26" x2="114.42" y2="67.26"/><line class="cls-13" x1="107.5" y1="55.15" x2="114.42" y2="55.15"/><line class="cls-13" x1="107.5" y1="51.11" x2="114.42" y2="51.11"/><line class="cls-13" x1="107.5" y1="47.07" x2="114.42" y2="47.07"/><line class="cls-13" x1="107.5" y1="43.04" x2="114.42" y2="43.04"/><line class="cls-13" x1="107.5" y1="39" x2="114.42" y2="39"/><rect class="cls-12" x="94.58" y="45.57" width="3.08" height="29.76"/><line class="cls-14" x1="94.58" y1="75.33" x2="97.67" y2="75.33"/><line class="cls-14" x1="94.58" y1="72.03" x2="97.67" y2="72.03"/><line class="cls-14" x1="94.58" y1="62.11" x2="97.67" y2="62.11"/><line class="cls-14" x1="94.58" y1="65.41" x2="97.67" y2="65.41"/><line class="cls-14" x1="94.58" y1="68.72" x2="97.67" y2="68.72"/><line class="cls-14" x1="94.58" y1="58.8" x2="97.67" y2="58.8"/><line class="cls-14" x1="94.58" y1="55.49" x2="97.67" y2="55.49"/><line class="cls-14" x1="94.58" y1="52.18" x2="97.67" y2="52.18"/><line class="cls-14" x1="94.58" y1="48.88" x2="97.67" y2="48.88"/><line class="cls-14" x1="94.58" y1="45.57" x2="97.67" y2="45.57"/><rect class="cls-12" x="1531.16" y="307.33" width="3.08" height="20.42" transform="translate(-230.08 1576.51) rotate(-90)"/><line class="cls-14" x1="94.58" y1="45.35" x2="94.58" y2="42.27"/><line class="cls-14" x1="94.72" y1="45.36" x2="97.74" y2="42.34"/><line class="cls-14" x1="80.3" y1="45.36" x2="77.28" y2="42.34"/><line class="cls-14" x1="90.48" y1="45.35" x2="90.48" y2="42.27"/><line class="cls-14" x1="87.17" y1="45.35" x2="87.17" y2="42.27"/><line class="cls-14" x1="83.86" y1="45.35" x2="83.86" y2="42.27"/><line class="cls-14" x1="80.56" y1="45.35" x2="80.56" y2="42.27"/><rect class="cls-12" x="77.25" y="45.57" width="3.08" height="29.76"/><line class="cls-14" x1="77.25" y1="75.33" x2="80.33" y2="75.33"/><line class="cls-14" x1="77.25" y1="72.03" x2="80.33" y2="72.03"/><line class="cls-14" x1="77.25" y1="62.11" x2="80.33" y2="62.11"/><line class="cls-14" x1="77.25" y1="65.41" x2="80.33" y2="65.41"/><line class="cls-14" x1="77.25" y1="68.72" x2="80.33" y2="68.72"/><line class="cls-14" x1="77.25" y1="58.8" x2="80.33" y2="58.8"/><line class="cls-14" x1="77.25" y1="55.49" x2="80.33" y2="55.49"/><line class="cls-14" x1="77.25" y1="52.18" x2="80.33" y2="52.18"/><line class="cls-14" x1="77.25" y1="48.88" x2="80.33" y2="48.88"/><line class="cls-14" x1="77.25" y1="45.57" x2="80.33" y2="45.57"/><rect class="cls-15" x="80.33" y="45.35" width="14.25" height="29.98"/><rect class="cls-16" x="82.11" y="49.9" width="10.69" height="19.87"/><polygon class="cls-17" points="72.17 48.33 73.83 51.21 72.17 54.08 70.5 51.38 72.17 48.33"/><polygon class="cls-17" points="102.21 48.33 103.88 51.21 102.21 54.08 100.54 51.38 102.21 48.33"/></svg>