<svg id="Layer_19" data-name="Layer 19" xmlns="http://www.w3.org/2000/svg" viewBox="0 0 166.79 97.25"><defs><style>.cls-1{fill:#e1dfdb;}.cls-2{fill:#676e79;}.cls-3{fill:#768b85;}.cls-4{fill:#e2e3e3;}.cls-5{fill:#626770;}.cls-6{fill:#e6e6e6;}.cls-7{fill:#bdc4d6;}.cls-8{fill:#b1b1b3;}.cls-9{fill:#e1e1e1;}.cls-10{fill:#19303f;}.cls-11{fill:#b3b3b3;}.cls-12{fill:#babab7;}.cls-13{fill:#fff;stroke:#b0b0b0;stroke-miterlimit:10;}.cls-14{fill:#565656;}.cls-15{fill:#172f3b;}.cls-16{fill:#5cb2ba;}.cls-17{fill:#b0b0b2;}.cls-18{fill:#949494;}.cls-19{fill:#919090;}.cls-20{fill:#b8b6b1;}</style></defs><title>house18</title><rect class="cls-1" x="9.58" y="27.75" width="147.63" height="62.71"/><rect class="cls-2" y="24.35" width="166.79" height="3.4"/><polygon class="cls-3" points="166.79 24.35 0 24.35 32.47 0 134.32 0 166.79 24.35"/><rect class="cls-4" x="73.43" y="56.25" width="21.06" height="24.13"/><path class="cls-5" d="M597,549.29a6.55,6.55,0,0,0-6.42,6.68v13.36h13.18V556A6.84,6.84,0,0,0,597,549.29Z" transform="translate(-566.03 -489.06)"/><line class="cls-6" x1="23.95" y1="67.35" x2="37.13" y2="67.35"/><line class="cls-6" x1="30.92" y1="60.22" x2="30.92" y2="80.26"/><line class="cls-6" x1="30.79" y1="67.35" x2="26.03" y2="62.59"/><line class="cls-6" x1="30.79" y1="67.35" x2="35.7" y2="62.43"/><path class="cls-7" d="M597,549a6.84,6.84,0,0,0-6.7,7V569.6H604V556A7.09,7.09,0,0,0,597,549Zm6.48,7.12h-1.53v-0.48a4.2,4.2,0,0,0-1.13-2.81l1-1a6.3,6.3,0,0,1,1.61,4.17v0.16Zm-3.71,0a2.7,2.7,0,0,0-.6-1.63l1.26-1.26a3.64,3.64,0,0,1,1,2.42v0.48h-1.62Zm-6.84,0v-0.48a3.75,3.75,0,0,1,.66-2.12l1.17,1.17a2.71,2.71,0,0,0-.44,1.43h-1.39Zm7.5-3.68a5.13,5.13,0,0,0-3.15-1.26v-1.62a6.51,6.51,0,0,1,4.21,1.82Zm-1.65,1.65a2.7,2.7,0,0,0-1.51-.61v-1.74a4.58,4.58,0,0,1,2.76,1.09Zm-2.06,1.77-1.21-1.21a2.17,2.17,0,0,1,1.21-.61v1.82Zm0.55-1.83a2.15,2.15,0,0,1,1.11.45l-1.11,1.11V554Zm-0.55-.54a2.72,2.72,0,0,0-1.6.77l-1.18-1.18a4.18,4.18,0,0,1,2.78-1.34v1.74Zm-1.54,1.61,1,1h-1.31A2.15,2.15,0,0,1,595.13,555.11Zm3.6-.22a2.15,2.15,0,0,1,.44,1.24h-1.68Zm-2.06-5.31v1.62a4.74,4.74,0,0,0-3.17,1.5l-1.07-1.07A6,6,0,0,1,596.68,549.58Zm-4.59,2.49,1.06,1.06a4.31,4.31,0,0,0-.82,2.52v0.48h-1.53V556A6.54,6.54,0,0,1,592.09,552.07Zm-1.28,17V556.69h1.53V569h-1.53Zm2.08,0V556.69h1.39V569h-1.39Zm1.94-12.36h1.84V569h-1.84V556.69Zm2.4,12.36V556.69h1.95V569h-1.95Zm2.5,0V556.69h1.62V569h-1.62Zm2.17,0V556.69h1.53V569h-1.53Z" transform="translate(-566.03 -489.06)"/><rect class="cls-7" x="24.78" y="69.78" width="12.63" height="0.55"/><rect class="cls-7" x="24.78" y="67.07" width="12.63" height="0.55"/><rect class="cls-7" x="24.78" y="72.49" width="12.63" height="0.55"/><rect class="cls-7" x="24.78" y="75.2" width="12.63" height="0.55"/><rect class="cls-7" x="24.78" y="77.91" width="12.63" height="0.55"/><path class="cls-5" d="M701.63,549.29a6.55,6.55,0,0,0-6.42,6.68v13.36h13.18V556A6.84,6.84,0,0,0,701.63,549.29Z" transform="translate(-566.03 -489.06)"/><line class="cls-6" x1="128.62" y1="67.35" x2="141.8" y2="67.35"/><line class="cls-6" x1="135.6" y1="60.22" x2="135.6" y2="80.26"/><line class="cls-6" x1="135.47" y1="67.35" x2="130.71" y2="62.59"/><line class="cls-6" x1="135.47" y1="67.35" x2="140.38" y2="62.43"/><path class="cls-7" d="M701.63,549a6.84,6.84,0,0,0-6.7,7V569.6h13.74V556A7.09,7.09,0,0,0,701.63,549Zm6.48,7.12h-1.53v-0.48a4.2,4.2,0,0,0-1.13-2.81l1-1a6.3,6.3,0,0,1,1.61,4.17v0.16Zm-3.71,0a2.7,2.7,0,0,0-.6-1.63l1.26-1.26a3.64,3.64,0,0,1,1,2.42v0.48H704.4Zm-6.84,0v-0.48a3.75,3.75,0,0,1,.66-2.12l1.17,1.17a2.71,2.71,0,0,0-.44,1.43h-1.39Zm7.5-3.68a5.13,5.13,0,0,0-3.15-1.26v-1.62a6.51,6.51,0,0,1,4.21,1.82Zm-1.65,1.65a2.7,2.7,0,0,0-1.51-.61v-1.74a4.58,4.58,0,0,1,2.76,1.09Zm-2.06,1.77-1.21-1.21a2.17,2.17,0,0,1,1.21-.61v1.82Zm0.55-1.83a2.15,2.15,0,0,1,1.11.45l-1.11,1.11V554Zm-0.55-.54a2.72,2.72,0,0,0-1.6.77l-1.18-1.18a4.18,4.18,0,0,1,2.78-1.34v1.74Zm-1.54,1.61,1,1h-1.31A2.15,2.15,0,0,1,699.81,555.11Zm3.6-.22a2.15,2.15,0,0,1,.44,1.24h-1.68Zm-2.06-5.31v1.62a4.74,4.74,0,0,0-3.17,1.5l-1.07-1.07A6,6,0,0,1,701.35,549.58Zm-4.59,2.49,1.06,1.06a4.31,4.31,0,0,0-.82,2.52v0.48h-1.53V556A6.54,6.54,0,0,1,696.77,552.07Zm-1.28,17V556.69H697V569h-1.53Zm2.08,0V556.69H699V569h-1.39Zm1.94-12.36h1.84V569h-1.84V556.69Zm2.4,12.36V556.69h1.95V569h-1.95Zm2.5,0V556.69H706V569h-1.62Zm2.17,0V556.69h1.53V569h-1.53Z" transform="translate(-566.03 -489.06)"/><rect class="cls-7" x="129.45" y="69.78" width="12.63" height="0.55"/><rect class="cls-7" x="129.45" y="67.07" width="12.63" height="0.55"/><rect class="cls-7" x="129.45" y="72.49" width="12.63" height="0.55"/><rect class="cls-7" x="129.45" y="75.2" width="12.63" height="0.55"/><rect class="cls-7" x="129.45" y="77.91" width="12.63" height="0.55"/><rect class="cls-8" x="24.1" y="33.69" width="14.05" height="18.12"/><rect class="cls-9" x="24.9" y="47.8" width="3.63" height="3.63"/><rect class="cls-9" x="24.9" y="43.39" width="3.63" height="3.63"/><rect class="cls-9" x="24.9" y="38.98" width="3.63" height="3.63"/><rect class="cls-9" x="24.9" y="34.56" width="3.63" height="3.63"/><rect class="cls-9" x="29.31" y="47.8" width="3.63" height="3.63"/><rect class="cls-9" x="29.31" y="43.39" width="3.63" height="3.63"/><rect class="cls-9" x="29.31" y="38.98" width="3.63" height="3.63"/><rect class="cls-9" x="29.31" y="34.56" width="3.63" height="3.63"/><rect class="cls-9" x="33.71" y="47.8" width="3.63" height="3.63"/><rect class="cls-9" x="33.71" y="43.39" width="3.63" height="3.63"/><rect class="cls-9" x="33.71" y="38.98" width="3.63" height="3.63"/><rect class="cls-9" x="33.71" y="34.56" width="3.63" height="3.63"/><rect class="cls-8" x="127.77" y="33.69" width="14.05" height="18.12"/><rect class="cls-9" x="128.57" y="47.8" width="3.63" height="3.63"/><rect class="cls-9" x="128.57" y="43.39" width="3.63" height="3.63"/><rect class="cls-9" x="128.57" y="38.98" width="3.63" height="3.63"/><rect class="cls-9" x="128.57" y="34.56" width="3.63" height="3.63"/><rect class="cls-9" x="132.98" y="47.8" width="3.63" height="3.63"/><rect class="cls-9" x="132.98" y="43.39" width="3.63" height="3.63"/><rect class="cls-9" x="132.98" y="38.98" width="3.63" height="3.63"/><rect class="cls-9" x="132.98" y="34.56" width="3.63" height="3.63"/><rect class="cls-9" x="137.39" y="47.8" width="3.63" height="3.63"/><rect class="cls-9" x="137.39" y="43.39" width="3.63" height="3.63"/><rect class="cls-9" x="137.39" y="38.98" width="3.63" height="3.63"/><rect class="cls-9" x="137.39" y="34.56" width="3.63" height="3.63"/><rect class="cls-8" x="78.45" y="33.31" width="10.81" height="10.78"/><rect class="cls-9" x="79.06" y="40.78" width="2.8" height="2.8"/><rect class="cls-9" x="79.06" y="37.38" width="2.8" height="2.8"/><rect class="cls-9" x="79.06" y="33.99" width="2.8" height="2.8"/><rect class="cls-9" x="82.45" y="40.78" width="2.8" height="2.8"/><rect class="cls-9" x="82.45" y="37.38" width="2.8" height="2.8"/><rect class="cls-9" x="82.45" y="33.99" width="2.8" height="2.8"/><rect class="cls-9" x="85.84" y="40.78" width="2.8" height="2.8"/><rect class="cls-9" x="85.84" y="37.38" width="2.8" height="2.8"/><rect class="cls-9" x="85.84" y="33.99" width="2.8" height="2.8"/><path class="cls-10" d="M630.7,531.56c-1.94,0-3.46-2.24-3.46-5.09s1.52-5.09,3.46-5.09,3.46,2.24,3.46,5.09S632.64,531.56,630.7,531.56Z" transform="translate(-566.03 -489.06)"/><path class="cls-11" d="M630.7,522.37c1.36,0,2.46,1.83,2.46,4.09s-1.1,4.09-2.46,4.09-2.46-1.83-2.46-4.09,1.1-4.09,2.46-4.09m0-2c-2.54,0-4.46,2.62-4.46,6.09s1.92,6.09,4.46,6.09,4.46-2.62,4.46-6.09-1.92-6.09-4.46-6.09h0Z" transform="translate(-566.03 -489.06)"/><path class="cls-10" d="M669.7,531.56c-1.94,0-3.46-2.24-3.46-5.09s1.52-5.09,3.46-5.09,3.46,2.24,3.46,5.09S671.64,531.56,669.7,531.56Z" transform="translate(-566.03 -489.06)"/><path class="cls-11" d="M669.7,522.37c1.36,0,2.46,1.83,2.46,4.09s-1.1,4.09-2.46,4.09-2.46-1.83-2.46-4.09,1.1-4.09,2.46-4.09m0-2c-2.54,0-4.46,2.62-4.46,6.09s1.92,6.09,4.46,6.09,4.46-2.62,4.46-6.09-1.92-6.09-4.46-6.09h0Z" transform="translate(-566.03 -489.06)"/><rect class="cls-12" x="71.46" y="44.13" width="25" height="37.25"/><rect class="cls-13" x="57.96" y="54.58" width="10.75" height="24.75"/><rect class="cls-14" x="62.29" y="64.9" width="2.08" height="3.6"/><rect class="cls-13" x="98.58" y="54.58" width="10.75" height="24.75"/><rect class="cls-14" x="102.92" y="64.9" width="2.08" height="3.6"/><path class="cls-15" d="M650,547.34a6.63,6.63,0,0,0-6.62,6.63v16.47h13.25V554A6.63,6.63,0,0,0,650,547.34Z" transform="translate(-566.03 -489.06)"/><rect class="cls-16" x="81.83" y="69.33" width="1.63" height="3.3"/><rect class="cls-16" x="84.65" y="69.33" width="1.63" height="3.3"/><rect class="cls-17" x="9.58" y="27.75" width="4.75" height="52.51"/><rect class="cls-17" x="51.08" y="27.75" width="4.75" height="52.51"/><rect class="cls-17" x="111.01" y="27.75" width="4.75" height="52.51"/><rect class="cls-17" x="152.51" y="27.75" width="4.75" height="52.51"/><rect class="cls-18" x="9.58" y="51.44" width="147.63" height="1.56"/><rect class="cls-19" x="51.08" y="80.26" width="64.68" height="3.4"/><rect class="cls-20" x="51.08" y="83.66" width="64.68" height="3.4"/><rect class="cls-19" x="51.08" y="87.06" width="64.68" height="3.4"/><rect class="cls-19" x="51.08" y="93.85" width="64.68" height="3.4"/><rect class="cls-20" x="51.08" y="90.46" width="64.68" height="3.4"/></svg>