<svg id="Layer_1" data-name="Layer 1" xmlns="http://www.w3.org/2000/svg" viewBox="0 0 242.73 66.23"><defs><style>.cls-1{fill:#e7debf;}.cls-2{fill:#cacac0;}.cls-3{fill:#c27b43;}.cls-4{fill:#a6aeb1;}.cls-5{fill:#a7adad;}.cls-6{fill:#e1dcc7;}.cls-7{fill:#f0fafc;}.cls-8{fill:#5a5756;}.cls-9{fill:#18303c;}</style></defs><title>house1</title><polygon class="cls-1" points="232.99 33.65 232.99 66.23 126.66 66.23 126.66 34.77 130.29 33.43 167.24 19.74 181.18 14.57 181.5 14.57 194.74 19.48 197.74 20.59 214.61 26.84 217.24 27.82 231.61 33.14 232.39 33.43 232.99 33.65"/><polygon class="cls-2" points="126.66 34.77 126.66 66.23 0 66.23 0 33.43 119.98 33.43 119.95 33.44 119.95 37.26 126.66 34.77"/><polygon class="cls-3" points="242.73 10.07 242.73 33.43 242.7 33.43 181.34 10.69 119.98 33.43 0 33.43 0 10.07 129.13 10.07 129.13 15.6 157.36 15.6 157.36 10.07 242.73 10.07"/><rect class="cls-4" y="33.43" width="119.95" height="3.83"/><rect class="cls-5" x="129.13" width="28.23" height="15.6"/><polygon class="cls-6" points="242.73 33.44 242.73 37.26 232.99 33.65 232.39 33.43 181.5 14.57 181.34 14.51 181.18 14.57 130.29 33.43 126.66 34.77 119.95 37.26 119.95 33.44 119.98 33.43 126.66 30.95 170.87 14.57 181.34 10.69 191.81 14.57 232.99 29.83 242.7 33.43 242.73 33.44"/><rect class="cls-7" x="52.82" y="48.23" width="10.51" height="10"/><rect class="cls-8" x="52.82" y="40.4" width="10.51" height="7.83"/><rect class="cls-7" x="78.11" y="48.23" width="10.51" height="10"/><rect class="cls-8" x="78.11" y="40.4" width="10.51" height="7.83"/><rect class="cls-7" x="102.98" y="48.23" width="10.51" height="10"/><rect class="cls-8" x="102.98" y="40.4" width="10.51" height="7.83"/><polygon class="cls-8" points="194.74 19.48 194.74 66.23 167.24 66.23 167.24 19.74 181.18 14.57 181.5 14.57 194.74 19.48"/><rect class="cls-9" x="171.24" y="40.4" width="12.63" height="25.83"/><polygon class="cls-8" points="214.61 26.84 214.61 43.52 197.74 43.52 197.74 20.59 214.61 26.84"/><polygon class="cls-8" points="231.61 33.14 231.61 43.52 217.24 43.52 217.24 27.82 231.61 33.14"/></svg>