<svg id="Layer_3" data-name="Layer 3" xmlns="http://www.w3.org/2000/svg" viewBox="0 0 359.83 69.08"><defs><style>.cls-1{fill:#c1c2bc;}.cls-2{fill:#cdcec9;}.cls-3{fill:none;stroke:#ff003c;}.cls-12,.cls-13,.cls-14,.cls-15,.cls-3{stroke-miterlimit:10;stroke-width:0.5px;}.cls-4{fill:#858686;}.cls-5{fill:#eff8fd;}.cls-6{fill:#5a5858;}.cls-7{fill:#b3bfbd;}.cls-8{fill:#eceff3;}.cls-9{fill:#b2b1b4;}.cls-10{fill:#b2b3ae;}.cls-11{fill:#939290;}.cls-12{fill:#eef7fc;stroke:#7d888b;}.cls-13{fill:#5b8191;}.cls-13,.cls-14,.cls-15{stroke:#747c7c;}.cls-14{fill:#908f8f;}.cls-15{fill:#919191;}</style></defs><title>house2</title><rect class="cls-1" x="10.33" y="24.35" width="72" height="44.48"/><rect class="cls-2" x="289.16" y="28.52" width="64.67" height="40.31"/><rect class="cls-2" x="136.33" y="24.35" width="72.5" height="44.48"/><rect class="cls-3" x="289.1" y="24.35" width="0.06" height="2.1"/><rect class="cls-4" x="20.83" y="24.35" width="50.5" height="10.98"/><rect class="cls-5" x="20.83" y="35.33" width="50.5" height="22.33"/><rect class="cls-6" y="16" width="92.16" height="8.35"/><polygon class="cls-6" points="208.83 17.5 208.83 24.35 129.33 24.35 129.33 16 199.66 16 199.66 17.5 208.83 17.5"/><polygon class="cls-7" points="129.33 16 129.33 24.35 136.33 24.35 136.33 68.83 82.33 68.83 82.33 24.35 92.16 24.35 92.16 16 82.33 16 82.33 0 136.33 0 136.33 16 129.33 16"/><rect class="cls-8" x="139.45" y="27.17" width="12.67" height="37.83"/><rect class="cls-9" x="141.7" y="27.17" width="8.17" height="34.5"/><rect class="cls-8" x="157.16" y="27.17" width="12.67" height="37.83"/><rect class="cls-9" x="159.41" y="27.17" width="8.17" height="34.5"/><rect class="cls-8" x="174.87" y="27.17" width="12.67" height="37.83"/><rect class="cls-9" x="177.12" y="27.17" width="8.17" height="34.5"/><rect class="cls-8" x="192.58" y="27.17" width="12.67" height="37.83"/><rect class="cls-9" x="194.83" y="27.17" width="8.17" height="34.5"/><path class="cls-3" d="M552.76,59.56v9h0.06v-9h-0.06Z" transform="translate(-263.66 -42.06)"/><path class="cls-10" d="M552.76,68.51v-9H472.49v51.33h80.33V68.51h-0.06Zm-4.1,3.88h-72v-9h72v9Z" transform="translate(-263.66 -42.06)"/><rect class="cls-11" x="199.66" y="9" width="98.67" height="8.5"/><rect class="cls-12" x="213" y="21.33" width="9" height="9"/><rect class="cls-12" x="222" y="21.33" width="9" height="9"/><rect class="cls-12" x="231" y="21.33" width="9" height="9"/><rect class="cls-12" x="240" y="21.33" width="9" height="9"/><rect class="cls-12" x="249" y="21.33" width="9" height="9"/><rect class="cls-12" x="258" y="21.33" width="9" height="9"/><rect class="cls-12" x="267" y="21.33" width="9" height="9"/><rect class="cls-12" x="276" y="21.33" width="9" height="9"/><polygon class="cls-6" points="359.83 20.17 359.83 28.52 289.16 28.52 289.16 17.5 298.33 17.5 298.33 20.17 359.83 20.17"/><rect class="cls-13" x="294.62" y="33.5" width="13.58" height="7.07"/><rect class="cls-14" x="294.62" y="40.56" width="13.58" height="7.07"/><rect class="cls-14" x="294.62" y="47.63" width="13.58" height="7.07"/><rect class="cls-14" x="294.62" y="54.7" width="13.58" height="7.07"/><rect class="cls-14" x="294.62" y="61.76" width="13.58" height="7.07"/><rect class="cls-13" x="308.21" y="33.5" width="13.58" height="7.07"/><rect class="cls-14" x="308.21" y="40.56" width="13.58" height="7.07"/><rect class="cls-14" x="308.21" y="47.63" width="13.58" height="7.07"/><rect class="cls-14" x="308.21" y="54.7" width="13.58" height="7.07"/><rect class="cls-14" x="308.21" y="61.76" width="13.58" height="7.07"/><rect class="cls-13" x="321.79" y="33.5" width="13.58" height="7.07"/><rect class="cls-14" x="321.79" y="40.56" width="13.58" height="7.07"/><rect class="cls-15" x="321.79" y="47.63" width="13.58" height="7.07"/><rect class="cls-14" x="321.79" y="54.7" width="13.58" height="7.07"/><rect class="cls-14" x="321.79" y="61.76" width="13.58" height="7.07"/><rect class="cls-13" x="335.38" y="33.5" width="13.58" height="7.07"/><rect class="cls-14" x="335.38" y="40.56" width="13.58" height="7.07"/><rect class="cls-14" x="335.38" y="47.63" width="13.58" height="7.07"/><rect class="cls-14" x="335.38" y="54.7" width="13.58" height="7.07"/><rect class="cls-14" x="335.38" y="61.76" width="13.58" height="7.07"/></svg>