<svg id="Layer_12" data-name="Layer 12" xmlns="http://www.w3.org/2000/svg" viewBox="0 0 234.83 56.88"><defs><style>.cls-1{fill:#c1c1bc;}.cls-2{fill:#f2f1f1;}.cls-3{fill:#e2e2e4;stroke:#a1abac;stroke-width:0.54px;}.cls-13,.cls-14,.cls-3{stroke-miterlimit:10;}.cls-4{fill:#efedee;}.cls-5{fill:#e1e2e2;}.cls-6{fill:#a3a2a2;}.cls-7{fill:#595857;}.cls-8{fill:#18303d;}.cls-9{fill:#5c5959;}.cls-10{fill:#4f4f50;}.cls-11{fill:#eeeded;}.cls-12{fill:#a1a09f;}.cls-13,.cls-14{fill:none;stroke:#a1a09f;}.cls-13{stroke-width:0.39px;}.cls-14{stroke-width:0.46px;}.cls-15{fill:#efeeee;}.cls-16{fill:#c1c2bd;}.cls-17{fill:#565653;}</style></defs><title>house11</title><rect class="cls-1" y="10.04" width="234.83" height="16.53"/><polygon class="cls-2" points="203.59 13.97 179.25 26.57 190.91 26.58 205.22 20.6 219.53 26.58 231.19 26.57 203.59 13.97"/><rect class="cls-3" x="113.68" y="0.27" width="7.81" height="11.06"/><rect class="cls-4" x="81.08" y="26.59" width="73.67" height="30.29"/><polygon class="cls-5" points="40.58 26.59 40.58 56.88 20.38 56.88 20.38 26.59 20.52 26.59 30.46 22.29 40.75 26.59 40.58 26.59"/><polygon class="cls-5" points="214.08 26.59 214.08 56.88 193.33 56.88 193.33 26.59 193.48 26.59 203.68 22.29 214.25 26.59 214.08 26.59"/><rect class="cls-6" x="54.66" y="26.59" width="26.42" height="30.29"/><rect class="cls-6" x="154.79" y="26.59" width="24.46" height="30.29"/><rect class="cls-7" x="56.92" y="30.04" width="23.67" height="26.83"/><rect class="cls-7" x="82.33" y="30.04" width="21.92" height="26.83"/><rect class="cls-7" x="130.44" y="30.04" width="21.92" height="26.83"/><rect class="cls-7" x="127.19" y="30.04" width="1.56" height="26.83"/><rect class="cls-7" x="105.86" y="30.04" width="1.56" height="26.83"/><rect class="cls-8" x="111.83" y="33.71" width="10.75" height="23.17"/><rect class="cls-9" x="111.83" y="30.15" width="10.75" height="3.56"/><rect class="cls-7" x="154.76" y="30.04" width="21.92" height="26.83"/><rect class="cls-10" x="62.06" y="35.72" width="2.78" height="15.27"/><rect class="cls-10" x="72.97" y="35.72" width="2.78" height="15.27"/><rect class="cls-11" x="64.83" y="34.89" width="8.14" height="17.06"/><path class="cls-12" d="M820,327.25v17.06h-8.14V327.25H820m0.32-.32H811.5v17.71h8.78V326.93h0Z" transform="translate(-746.99 -292.35)"/><line class="cls-13" x1="64.83" y1="39.38" x2="72.97" y2="39.38"/><line class="cls-13" x1="64.83" y1="43.87" x2="72.97" y2="43.87"/><line class="cls-13" x1="64.83" y1="47.55" x2="72.97" y2="47.55"/><line class="cls-13" x1="66.62" y1="34.89" x2="66.62" y2="51.96"/><line class="cls-13" x1="68.9" y1="34.89" x2="68.9" y2="51.96"/><line class="cls-13" x1="71.19" y1="34.89" x2="71.19" y2="51.96"/><rect class="cls-10" x="86.37" y="35.72" width="2.78" height="15.27"/><rect class="cls-10" x="97.28" y="35.72" width="2.78" height="15.27"/><rect class="cls-11" x="89.15" y="34.89" width="8.14" height="17.06"/><path class="cls-12" d="M844.27,327.25v17.06h-8.14V327.25h8.14m0.32-.32h-8.78v17.71h8.78V326.93h0Z" transform="translate(-746.99 -292.35)"/><line class="cls-13" x1="89.15" y1="39.38" x2="97.28" y2="39.38"/><line class="cls-13" x1="89.15" y1="43.87" x2="97.28" y2="43.87"/><line class="cls-13" x1="89.15" y1="47.55" x2="97.28" y2="47.55"/><line class="cls-13" x1="90.93" y1="34.89" x2="90.93" y2="51.96"/><line class="cls-13" x1="93.22" y1="34.89" x2="93.22" y2="51.96"/><line class="cls-13" x1="95.5" y1="34.89" x2="95.5" y2="51.96"/><rect class="cls-10" x="134.56" y="35.72" width="2.78" height="15.27"/><rect class="cls-10" x="145.47" y="35.72" width="2.78" height="15.27"/><rect class="cls-11" x="137.33" y="34.89" width="8.14" height="17.06"/><path class="cls-12" d="M892.46,327.25v17.06h-8.14V327.25h8.14m0.32-.32H884v17.71h8.78V326.93h0Z" transform="translate(-746.99 -292.35)"/><line class="cls-13" x1="137.33" y1="39.38" x2="145.47" y2="39.38"/><line class="cls-13" x1="137.33" y1="43.87" x2="145.47" y2="43.87"/><line class="cls-13" x1="137.33" y1="47.55" x2="145.47" y2="47.55"/><line class="cls-13" x1="139.12" y1="34.89" x2="139.12" y2="51.96"/><line class="cls-13" x1="141.4" y1="34.89" x2="141.4" y2="51.96"/><line class="cls-13" x1="143.69" y1="34.89" x2="143.69" y2="51.96"/><rect class="cls-10" x="158.87" y="35.72" width="2.78" height="15.27"/><rect class="cls-10" x="169.78" y="35.72" width="2.78" height="15.27"/><rect class="cls-11" x="161.65" y="34.89" width="8.14" height="17.06"/><path class="cls-12" d="M916.77,327.25v17.06h-8.14V327.25h8.14m0.32-.32h-8.78v17.71h8.78V326.93h0Z" transform="translate(-746.99 -292.35)"/><line class="cls-13" x1="161.65" y1="39.38" x2="169.78" y2="39.38"/><line class="cls-13" x1="161.65" y1="43.87" x2="169.78" y2="43.87"/><line class="cls-13" x1="161.65" y1="47.55" x2="169.78" y2="47.55"/><line class="cls-13" x1="163.43" y1="34.89" x2="163.43" y2="51.96"/><line class="cls-13" x1="165.72" y1="34.89" x2="165.72" y2="51.96"/><line class="cls-13" x1="168" y1="34.89" x2="168" y2="51.96"/><rect class="cls-11" x="24.69" y="31.77" width="11.54" height="16.84"/><path class="cls-12" d="M783.22,324.12V341H771.68V324.12h11.54m1-1H770.68V342h13.54V323.12h0Z" transform="translate(-746.99 -292.35)"/><line class="cls-14" x1="24.69" y1="36.2" x2="36.23" y2="36.2"/><line class="cls-14" x1="24.69" y1="40.62" x2="36.23" y2="40.62"/><line class="cls-14" x1="24.69" y1="44.25" x2="36.23" y2="44.25"/><line class="cls-14" x1="27.22" y1="31.77" x2="27.22" y2="48.61"/><line class="cls-14" x1="30.46" y1="31.77" x2="30.46" y2="48.61"/><line class="cls-14" x1="33.7" y1="31.77" x2="33.7" y2="48.61"/><rect class="cls-11" x="197.82" y="31.77" width="11.54" height="16.84"/><path class="cls-12" d="M956.35,324.12V341H944.81V324.12h11.54m1-1H943.81V342h13.54V323.12h0Z" transform="translate(-746.99 -292.35)"/><line class="cls-14" x1="197.82" y1="36.2" x2="209.36" y2="36.2"/><line class="cls-14" x1="197.82" y1="40.62" x2="209.36" y2="40.62"/><line class="cls-14" x1="197.82" y1="44.25" x2="209.36" y2="44.25"/><line class="cls-14" x1="200.35" y1="31.77" x2="200.35" y2="48.61"/><line class="cls-14" x1="203.59" y1="31.77" x2="203.59" y2="48.61"/><line class="cls-14" x1="206.83" y1="31.77" x2="206.83" y2="48.61"/><polygon class="cls-15" points="54.66 26.59 40.58 26.59 30.46 22.29 20.04 26.59 3 26.59 30.46 13.96 54.66 26.59"/><rect class="cls-7" x="3" y="26.58" width="17.38" height="30.29"/><rect class="cls-7" x="40.58" y="26.58" width="14.08" height="30.29"/><rect class="cls-7" x="179.25" y="26.58" width="14.08" height="30.29"/><rect class="cls-7" x="214.1" y="26.58" width="17.08" height="30.29"/><polygon class="cls-4" points="117.58 7.87 78.67 26.59 117.58 26.59 156.5 26.59 117.58 7.87"/><circle class="cls-16" cx="117.21" cy="16.71" r="2.67"/><polygon class="cls-17" points="203.68 17.52 185.17 26.58 193.48 26.59 203.68 22.29 213.89 26.59 222.2 26.58 203.68 17.52"/></svg>