<svg id="Layer_8" data-name="Layer 8" xmlns="http://www.w3.org/2000/svg" viewBox="0 0 135.58 77.16"><defs><style>.cls-1{fill:#886f5b;}.cls-2{fill:#b3a193;}.cls-3{fill:#9b8472;}.cls-4{fill:#7a5f4a;}.cls-5{fill:#e4eaeb;}.cls-6{fill:#e1e1e3;}.cls-7{fill:#fff;stroke:#545e59;stroke-miterlimit:10;stroke-width:0.75px;}.cls-8{fill:#484847;}</style></defs><title>house7</title><polygon class="cls-1" points="68.66 31.7 68.66 35.7 84.16 35.7 84.16 71.29 0 71.29 0 5.62 84.16 5.62 84.16 31.7 68.66 31.7"/><polygon class="cls-2" points="135.58 32.74 135.58 77.16 84.16 77.16 84.16 35.7 88.83 35.7 88.83 32.74 135.58 32.74"/><polygon class="cls-3" points="126.45 0 126.45 32.74 88.83 32.74 88.83 31.7 84.16 31.7 84.16 0 126.45 0"/><rect class="cls-4" y="5.62" width="24.67" height="34.67"/><rect class="cls-5" x="15.75" y="40.29" width="20" height="3.25"/><rect class="cls-6" x="68.66" y="31.7" width="20.17" height="4"/><rect class="cls-7" x="62.58" y="13.95" width="5.67" height="5.67"/><rect class="cls-7" x="71" y="13.95" width="5.67" height="5.67"/><rect class="cls-8" x="19.92" y="48.2" width="11.58" height="23.08"/><rect class="cls-5" x="42.83" y="59.79" width="4.83" height="4.83"/><rect class="cls-5" x="50.33" y="59.79" width="4.83" height="4.83"/></svg>