<svg id="Layer_4" data-name="Layer 4" xmlns="http://www.w3.org/2000/svg" viewBox="0 0 129.39 130.09"><defs><style>.cls-1{fill:#886f5a;}.cls-2,.cls-3{fill:#eff8fd;}.cls-3{stroke:#636372;stroke-miterlimit:10;stroke-width:0.5px;}.cls-4{fill:#e1e1e3;}.cls-5{fill:#c0bebc;}.cls-6{fill:#3d3d3c;}.cls-7{fill:#858180;}.cls-8{fill:#192f3b;}</style></defs><title>house3</title><polygon class="cls-1" points="124.93 130.09 4.46 130.09 5.55 127.94 47.28 45.43 64.7 10.98 82.12 45.43 123.84 127.94 124.93 130.09"/><polygon class="cls-2" points="82.12 45.43 47.28 45.43 64.7 10.98 82.12 45.43"/><rect class="cls-3" x="46.36" y="47.24" width="12.26" height="22.32"/><rect class="cls-3" x="58.57" y="47.24" width="12.26" height="22.32"/><rect class="cls-3" x="70.77" y="47.24" width="12.26" height="22.32"/><rect class="cls-4" x="25.04" y="94.49" width="17.75" height="35.6"/><rect class="cls-5" x="27.23" y="96.56" width="13.38" height="25.75"/><rect class="cls-6" x="29.48" y="98.31" width="3.63" height="3.63"/><rect class="cls-7" x="29.48" y="103.62" width="3.63" height="16.25"/><rect class="cls-6" x="34.73" y="98.31" width="3.63" height="3.63"/><rect class="cls-7" x="34.73" y="103.62" width="3.63" height="16.25"/><polygon class="cls-8" points="129.39 127.94 123.84 127.94 64.7 10.98 5.55 127.94 0 127.94 64.7 0 129.39 127.94"/><rect class="cls-3" x="46.36" y="94.49" width="17.8" height="32.07"/><rect class="cls-3" x="64.09" y="94.49" width="17.8" height="32.07"/><rect class="cls-3" x="81.82" y="94.49" width="17.8" height="32.07"/></svg>