<svg id="Layer_14" data-name="Layer 14" xmlns="http://www.w3.org/2000/svg" viewBox="0 0 208.71 64.5"><defs><style>.cls-1{fill:#484848;}.cls-2{fill:#595856;}.cls-3{fill:#cacbc1;}.cls-4{fill:#5a5958;}.cls-5{fill:#18303b;}.cls-6{fill:#909090;}.cls-7{fill:#a7acaf;}.cls-8{fill:#939291;}.cls-9{fill:#828587;}.cls-10,.cls-15{fill:none;stroke-miterlimit:10;}.cls-10{stroke:#484848;}.cls-11{fill:#2d4c61;}.cls-12{fill:#7b614a;}.cls-13{fill:#e2e1d6;}.cls-14{fill:#e4e2d7;}.cls-15{stroke:#7b614a;stroke-width:1.5px;}</style></defs><title>house13</title><rect class="cls-1" x="159" y="15.33" width="49.71" height="28.42"/><rect class="cls-2" x="44.04" y="11.59" width="114.99" height="31.67"/><polygon class="cls-3" points="112.91 0 67.85 43.25 159.54 43.25 112.91 0"/><rect class="cls-4" x="3.96" y="43.25" width="14.42" height="21.25"/><rect class="cls-5" y="19.38" width="18.38" height="23.87"/><rect class="cls-1" x="18.38" y="15.42" width="25.67" height="27.83"/><rect class="cls-6" x="159" y="43.25" width="46.38" height="21.25"/><rect class="cls-7" x="141.98" y="43.25" width="17.02" height="21.25"/><rect class="cls-7" x="126.96" y="43.25" width="7.69" height="21.25"/><rect class="cls-7" x="103.13" y="43.25" width="16.5" height="21.25"/><rect class="cls-8" x="134.65" y="43.25" width="7.33" height="21.25"/><rect class="cls-8" x="119.62" y="43.25" width="7.33" height="21.25"/><rect class="cls-8" x="44.04" y="43.25" width="59.08" height="21.25"/><rect class="cls-9" x="18.38" y="43.25" width="25.67" height="21.25"/><rect class="cls-1" x="27.54" y="47.17" width="6.83" height="13.33"/><rect class="cls-1" x="37.21" y="47.17" width="6.83" height="13.33"/><rect class="cls-1" x="48.96" y="47.17" width="6.83" height="13.33"/><rect class="cls-1" x="58.38" y="47.17" width="6.83" height="13.33"/><rect class="cls-1" x="67.71" y="47.17" width="6.83" height="13.33"/><rect class="cls-1" x="170.83" y="45.38" width="9.29" height="15.12"/><rect class="cls-1" x="183.71" y="45.38" width="9.29" height="15.12"/><polyline class="cls-10" points="92.54 64.5 92.54 47.17 100.21 47.17 100.21 64.5"/><rect class="cls-11" x="92.54" y="47.17" width="7.67" height="17.33"/><polygon class="cls-12" points="110.5 36.71 110.09 37.06 110.47 36.68 110.5 36.71"/><path class="cls-12" d="M1323.86,293.77l-0.92-.86-9-8.35-8.72,8.35-1,.91-4.36,4.18-0.91.86-16.66,16L1281,316.1l-12.23,11.71h91.92Zm3.29,5.35-12.23,12.22V294.61h7.35Zm-12.23-6.21v-5.1l5.52,5.1h-5.52Zm-1.7-5.34v5.34h-5.58Zm-7.35,7h7.35v16.73l-12.14-12.14Zm-32.9,31.5,8-7.66v7.66h-8Zm9.7,0v-9l13.15,9h-13.15Zm1.07-10.31L1299,301.21v24.9h-0.13Zm16.93-14.61,12.55,12.56v6.06h1.7v-6.06l12.64-12.64v6.5h1.7v-6.54l27.06,25h-55.65V301.19Z" transform="translate(-1201.11 -284.56)"/><polygon class="cls-13" points="130.8 18.67 103.13 43.25 159 43.25 130.8 18.67"/><path class="cls-12" d="M1347,316.38l-0.48-.42-14.1-12.29-0.5-.44-0.5.44L1317.58,316l-0.5.45-5.47,4.86-0.4.35-7,6.19h55.87Zm-40.13,10.43,4.71-4.18,4.26,4.18h-9Zm10.21-.19-4.76-4.65,4.76-4.23v8.88Zm1,0.19v-9.62l11.81,9.62h-11.81Zm13.34,0-12.79-10.4L1331.42,305v21.76Zm1-21.76,13,11.34-13,10.27V305ZM1346,326.81h-12.23l12.23-9.64v9.64Zm1-9.11,4.82,4.2-4.82,4.72V317.7Zm5.58,4.86,4.87,4.25h-9.21Z" transform="translate(-1201.11 -284.56)"/><polygon class="cls-14" points="182.23 25.79 164.34 43.25 200.11 43.25 182.23 25.79"/><path class="cls-12" d="M1383.34,312.45l14.2,13.86h-28.41l14.2-13.86m0-2.1-17.89,17.46h35.78l-17.89-17.46h0Z" transform="translate(-1201.11 -284.56)"/><line class="cls-15" x1="182.23" y1="26.51" x2="182.23" y2="42.74"/><line class="cls-15" x1="182.23" y1="42.74" x2="174.58" y2="35.09"/><line class="cls-15" x1="182.23" y1="42.74" x2="190.03" y2="34.93"/></svg>