<svg id="Layer_10" data-name="Layer 10" xmlns="http://www.w3.org/2000/svg" viewBox="0 0 174.38 49.62"><defs><style>.cls-1{fill:#cacac0;}.cls-2{fill:#e5e1d6;}.cls-3{fill:#132e3b;}.cls-4{fill:#a6aeac;}.cls-5{fill:#9e9995;}.cls-6{fill:#90908f;}.cls-7{fill:#eeeded;}.cls-8{fill:#a1a09f;}.cls-10,.cls-9{fill:none;stroke:#a1a09f;stroke-miterlimit:10;}.cls-9{stroke-width:0.5px;}.cls-10{stroke-width:0.37px;}</style></defs><title>house9</title><rect class="cls-1" x="68.96" y="22.96" width="102.16" height="26.66"/><polygon class="cls-2" points="68.96 19.2 68.96 49.62 0 49.62 0 19.2 34.48 2.28 68.96 19.2"/><rect class="cls-3" x="71.63" y="30.12" width="4.88" height="12.58"/><rect class="cls-3" x="78.42" y="35.83" width="6" height="3.08"/><path class="cls-4" d="M405.24,326.13a8.17,8.17,0,0,0-8.17,8.17v14.8h16.33v-14.8A8.17,8.17,0,0,0,405.24,326.13Z" transform="translate(-309.49 -299.48)"/><path class="cls-4" d="M427.49,326.13a8.17,8.17,0,0,0-8.17,8.17v14.8h16.33v-14.8A8.17,8.17,0,0,0,427.49,326.13Z" transform="translate(-309.49 -299.48)"/><path class="cls-4" d="M450.07,326.13a8.17,8.17,0,0,0-8.17,8.17v14.8h16.33v-14.8A8.17,8.17,0,0,0,450.07,326.13Z" transform="translate(-309.49 -299.48)"/><circle class="cls-3" cx="106.79" cy="29.71" r="1.38"/><circle class="cls-3" cx="129.4" cy="29.71" r="1.38"/><polygon class="cls-5" points="68.96 16.91 68.96 19.2 34.48 2.28 0 19.2 0 16.91 34.48 0 68.96 16.91"/><polygon class="cls-6" points="174.38 0 174.38 22.96 68.96 22.96 68.96 16.91 34.48 0 174.38 0"/><rect class="cls-7" x="28.21" y="15.83" width="12.54" height="18.54"/><path class="cls-8" d="M350.24,315.31v18.54H337.7V315.31h12.54m1-1H336.7v20.54h14.54V314.31h0Z" transform="translate(-309.49 -299.48)"/><line class="cls-9" x1="28.21" y1="20.7" x2="40.75" y2="20.7"/><line class="cls-9" x1="28.21" y1="25.58" x2="40.75" y2="25.58"/><line class="cls-9" x1="28.21" y1="29.58" x2="40.75" y2="29.58"/><line class="cls-9" x1="30.96" y1="15.83" x2="30.96" y2="34.37"/><line class="cls-9" x1="34.48" y1="15.83" x2="34.48" y2="34.37"/><line class="cls-9" x1="38" y1="15.83" x2="38" y2="34.37"/><rect class="cls-7" x="155.75" y="30.12" width="9.37" height="13.67"/><path class="cls-8" d="M474.61,329.6v13.67h-9.37V329.6h9.38m0.74-.74H464.5V344h10.86V328.86h0Z" transform="translate(-309.49 -299.48)"/><line class="cls-10" x1="155.75" y1="33.71" x2="165.12" y2="33.71"/><line class="cls-10" x1="155.75" y1="37.31" x2="165.12" y2="37.31"/><line class="cls-10" x1="155.75" y1="40.26" x2="165.12" y2="40.26"/><line class="cls-10" x1="157.81" y1="30.12" x2="157.81" y2="43.79"/><line class="cls-10" x1="160.44" y1="30.12" x2="160.44" y2="43.79"/><line class="cls-10" x1="163.07" y1="30.12" x2="163.07" y2="43.79"/></svg>