<svg id="Layer_13" data-name="Layer 13" xmlns="http://www.w3.org/2000/svg" viewBox="0 0 198.73 72.81"><defs><style>.cls-1{fill:#919090;}.cls-2{fill:#cecfd1;}.cls-3{fill:#7a5e4a;}.cls-4{fill:#e2e2e4;stroke-width:0.41px;}.cls-4,.cls-8,.cls-9{stroke:#a1abac;}.cls-10,.cls-4,.cls-8,.cls-9{stroke-miterlimit:10;}.cls-5{fill:#132a39;}.cls-6{fill:#eeeded;}.cls-7{fill:#a1abac;}.cls-10,.cls-8,.cls-9{fill:none;}.cls-8{stroke-width:0.5px;}.cls-9{stroke-width:0.42px;}.cls-10{stroke:#1b3346;}.cls-11{fill:#2a4d60;}.cls-12{fill:#a0a1a1;}.cls-13{fill:#87705a;}</style></defs><title>house12</title><rect class="cls-1" x="41.56" y="51.57" width="113" height="21.24"/><rect class="cls-1" x="5.48" y="45.15" width="38.04" height="16.25"/><rect class="cls-1" x="153.12" y="45.15" width="40.13" height="16.25"/><rect class="cls-2" y="43.11" width="43.52" height="2.05"/><polygon class="cls-3" points="48.44 9.61 70.25 23.92 43.52 43.11 0 43.11 48.44 9.61"/><rect class="cls-2" x="1147.02" y="319.69" width="43.52" height="2.05" transform="translate(1345.75 364.84) rotate(-180)"/><polygon class="cls-3" points="145.27 9.61 128.48 23.92 155.21 43.11 198.73 43.11 145.27 9.61"/><rect class="cls-4" x="96.83" y="0.2" width="4.45" height="11.06"/><rect class="cls-5" x="44.67" y="54.88" width="2.94" height="15.03"/><rect class="cls-5" x="57.07" y="54.88" width="2.94" height="15.03"/><rect class="cls-6" x="47.37" y="54.62" width="9.95" height="15.53"/><path class="cls-7" d="M1048.87,331.45v15h-9.45v-15h9.45m0.5-.5h-10.45v16h10.45V331h0Z" transform="translate(-991.8 -276.58)"/><line class="cls-8" x1="52.34" y1="54.88" x2="52.34" y2="69.91"/><line class="cls-8" x1="47.62" y1="57.88" x2="57.07" y2="57.88"/><line class="cls-8" x1="47.62" y1="60.89" x2="57.07" y2="60.89"/><line class="cls-8" x1="47.62" y1="63.89" x2="57.07" y2="63.89"/><line class="cls-8" x1="47.62" y1="66.9" x2="57.07" y2="66.9"/><line class="cls-8" x1="47.62" y1="69.91" x2="57.07" y2="69.91"/><line class="cls-8" x1="47.62" y1="54.88" x2="57.07" y2="54.88"/><rect class="cls-5" x="9.05" y="46.5" width="2.48" height="12.67"/><rect class="cls-5" x="19.5" y="46.5" width="2.48" height="12.67"/><rect class="cls-6" x="11.32" y="46.29" width="8.39" height="13.09"/><path class="cls-7" d="M1011.3,323.08v12.67h-8V323.08h8m0.42-.42h-8.81v13.51h8.81V322.66h0Z" transform="translate(-991.8 -276.58)"/><line class="cls-9" x1="15.51" y1="46.5" x2="15.51" y2="59.17"/><line class="cls-9" x1="11.53" y1="49.03" x2="19.5" y2="49.03"/><line class="cls-9" x1="11.53" y1="51.57" x2="19.5" y2="51.57"/><line class="cls-9" x1="11.53" y1="54.1" x2="19.5" y2="54.1"/><line class="cls-9" x1="11.53" y1="56.64" x2="19.5" y2="56.64"/><line class="cls-9" x1="11.53" y1="59.17" x2="19.5" y2="59.17"/><line class="cls-9" x1="11.53" y1="46.5" x2="19.5" y2="46.5"/><rect class="cls-5" x="26.48" y="46.5" width="2.48" height="12.67"/><rect class="cls-5" x="36.93" y="46.5" width="2.48" height="12.67"/><rect class="cls-6" x="28.75" y="46.29" width="8.39" height="13.09"/><path class="cls-7" d="M1028.74,323.08v12.67h-8V323.08h8m0.42-.42h-8.81v13.51h8.81V322.66h0Z" transform="translate(-991.8 -276.58)"/><line class="cls-9" x1="32.95" y1="46.5" x2="32.95" y2="59.17"/><line class="cls-9" x1="28.97" y1="49.03" x2="36.93" y2="49.03"/><line class="cls-9" x1="28.97" y1="51.57" x2="36.93" y2="51.57"/><line class="cls-9" x1="28.97" y1="54.1" x2="36.93" y2="54.1"/><line class="cls-9" x1="28.97" y1="56.64" x2="36.93" y2="56.64"/><line class="cls-9" x1="28.97" y1="59.17" x2="36.93" y2="59.17"/><line class="cls-9" x1="28.97" y1="46.5" x2="36.93" y2="46.5"/><rect class="cls-5" x="160.05" y="46.5" width="2.48" height="12.67"/><rect class="cls-5" x="170.5" y="46.5" width="2.48" height="12.67"/><rect class="cls-6" x="162.32" y="46.29" width="8.39" height="13.09"/><path class="cls-7" d="M1162.3,323.08v12.67h-8V323.08h8m0.42-.42h-8.81v13.51h8.81V322.66h0Z" transform="translate(-991.8 -276.58)"/><line class="cls-9" x1="166.51" y1="46.5" x2="166.51" y2="59.17"/><line class="cls-9" x1="162.53" y1="49.03" x2="170.5" y2="49.03"/><line class="cls-9" x1="162.53" y1="51.57" x2="170.5" y2="51.57"/><line class="cls-9" x1="162.53" y1="54.1" x2="170.5" y2="54.1"/><line class="cls-9" x1="162.53" y1="56.64" x2="170.5" y2="56.64"/><line class="cls-9" x1="162.53" y1="59.17" x2="170.5" y2="59.17"/><line class="cls-9" x1="162.53" y1="46.5" x2="170.5" y2="46.5"/><rect class="cls-5" x="177.48" y="46.5" width="2.48" height="12.67"/><rect class="cls-5" x="187.93" y="46.5" width="2.48" height="12.67"/><rect class="cls-6" x="179.75" y="46.29" width="8.39" height="13.09"/><path class="cls-7" d="M1179.74,323.08v12.67h-8V323.08h8m0.42-.42h-8.81v13.51h8.81V322.66h0Z" transform="translate(-991.8 -276.58)"/><line class="cls-9" x1="183.95" y1="46.5" x2="183.95" y2="59.17"/><line class="cls-9" x1="179.97" y1="49.03" x2="187.93" y2="49.03"/><line class="cls-9" x1="179.97" y1="51.57" x2="187.93" y2="51.57"/><line class="cls-9" x1="179.97" y1="54.1" x2="187.93" y2="54.1"/><line class="cls-9" x1="179.97" y1="56.64" x2="187.93" y2="56.64"/><line class="cls-9" x1="179.97" y1="59.17" x2="187.93" y2="59.17"/><line class="cls-9" x1="179.97" y1="46.5" x2="187.93" y2="46.5"/><rect class="cls-5" x="67.5" y="54.88" width="2.94" height="15.03"/><rect class="cls-5" x="79.9" y="54.88" width="2.94" height="15.03"/><rect class="cls-6" x="70.2" y="54.62" width="9.95" height="15.53"/><path class="cls-7" d="M1071.7,331.45v15h-9.45v-15h9.45m0.5-.5h-10.45v16h10.45V331h0Z" transform="translate(-991.8 -276.58)"/><line class="cls-8" x1="75.17" y1="54.88" x2="75.17" y2="69.91"/><line class="cls-8" x1="70.45" y1="57.88" x2="79.9" y2="57.88"/><line class="cls-8" x1="70.45" y1="60.89" x2="79.9" y2="60.89"/><line class="cls-8" x1="70.45" y1="63.89" x2="79.9" y2="63.89"/><line class="cls-8" x1="70.45" y1="66.9" x2="79.9" y2="66.9"/><line class="cls-8" x1="70.45" y1="69.91" x2="79.9" y2="69.91"/><line class="cls-8" x1="70.45" y1="54.88" x2="79.9" y2="54.88"/><rect class="cls-5" x="90.34" y="54.88" width="2.94" height="15.03"/><rect class="cls-5" x="102.73" y="54.88" width="2.94" height="15.03"/><rect class="cls-6" x="93.03" y="54.62" width="9.95" height="15.53"/><path class="cls-7" d="M1094.54,331.45v15h-9.45v-15h9.45m0.5-.5h-10.45v16H1095V331h0Z" transform="translate(-991.8 -276.58)"/><line class="cls-8" x1="98.01" y1="54.88" x2="98.01" y2="69.91"/><line class="cls-8" x1="93.28" y1="57.88" x2="102.73" y2="57.88"/><line class="cls-8" x1="93.28" y1="60.89" x2="102.73" y2="60.89"/><line class="cls-8" x1="93.28" y1="63.89" x2="102.73" y2="63.89"/><line class="cls-8" x1="93.28" y1="66.9" x2="102.73" y2="66.9"/><line class="cls-8" x1="93.28" y1="69.91" x2="102.73" y2="69.91"/><line class="cls-8" x1="93.28" y1="54.88" x2="102.73" y2="54.88"/><rect class="cls-5" x="113.17" y="54.88" width="2.94" height="15.03"/><rect class="cls-5" x="125.57" y="54.88" width="2.94" height="15.03"/><rect class="cls-6" x="115.87" y="54.62" width="9.95" height="15.53"/><path class="cls-7" d="M1117.37,331.45v15h-9.45v-15h9.45m0.5-.5h-10.45v16h10.45V331h0Z" transform="translate(-991.8 -276.58)"/><line class="cls-8" x1="120.84" y1="54.88" x2="120.84" y2="69.91"/><line class="cls-8" x1="116.12" y1="57.88" x2="125.57" y2="57.88"/><line class="cls-8" x1="116.12" y1="60.89" x2="125.57" y2="60.89"/><line class="cls-8" x1="116.12" y1="63.89" x2="125.57" y2="63.89"/><line class="cls-8" x1="116.12" y1="66.9" x2="125.57" y2="66.9"/><line class="cls-8" x1="116.12" y1="69.91" x2="125.57" y2="69.91"/><line class="cls-8" x1="116.12" y1="54.88" x2="125.57" y2="54.88"/><path class="cls-10" d="M1141.15,349.39v-11a6.07,6.07,0,0,0-12.13,0v11" transform="translate(-991.8 -276.58)"/><path class="cls-11" d="M1135.08,332.33a6.07,6.07,0,0,0-6.07,6.07v11h12.13v-11A6.07,6.07,0,0,0,1135.08,332.33Z" transform="translate(-991.8 -276.58)"/><rect class="cls-12" x="34.64" y="49.86" width="125.41" height="1.71"/><polygon class="cls-13" points="72.28 6.61 121.15 6.61 160.05 49.89 34.64 49.89 72.28 6.61"/></svg>