<svg id="Layer_11" data-name="Layer 11" xmlns="http://www.w3.org/2000/svg" viewBox="0 0 241.35 58.42"><defs><style>.cls-1,.cls-12{fill:none;stroke-miterlimit:10;}.cls-1{stroke:#c4c3c3;}.cls-2{fill:#e1e1e1;}.cls-3{fill:#cacabf;}.cls-4{fill:#b2b3ad;}.cls-5{fill:#9b8573;}.cls-6{fill:#ab988a;}.cls-7{fill:#b3a194;}.cls-8{fill:#eeeded;}.cls-9{fill:#9b816e;}.cls-10{fill:#4f4f50;}.cls-11{fill:#a1a09f;}.cls-12{stroke:#a1a09f;stroke-width:0.3px;}.cls-13{fill:#edebed;}.cls-14{fill:#eeedee;}</style></defs><title>house10</title><rect class="cls-1" x="124.35" y="0.5" width="11.69" height="6.25"/><rect class="cls-2" x="64" y="36.75" width="83.85" height="21.67"/><rect class="cls-3" x="147.85" y="33.5" width="65.25" height="24.92"/><rect class="cls-4" x="213.1" y="33.5" width="28.25" height="24.92"/><rect class="cls-5" x="213.1" y="14.16" width="28.25" height="19.34"/><rect class="cls-6" x="147.85" y="10.38" width="65.25" height="23.13"/><rect class="cls-7" x="64" y="6.75" width="83.85" height="30"/><rect class="cls-8" y="33.67" width="64" height="24.75"/><rect class="cls-9" y="10.08" width="64" height="23.58"/><rect class="cls-10" x="4.17" y="39.13" width="2.5" height="10.25"/><rect class="cls-10" x="13.99" y="39.13" width="2.5" height="10.25"/><rect class="cls-8" x="6.67" y="38.57" width="7.32" height="11.46"/><path class="cls-11" d="M509.06,329.38v11.46h-7.32V329.38h7.32m0.25-.25h-7.82v12h7.82v-12h0Z" transform="translate(-495.07 -290.81)"/><line class="cls-12" x1="6.67" y1="41.58" x2="13.99" y2="41.58"/><line class="cls-12" x1="6.67" y1="44.6" x2="13.99" y2="44.6"/><line class="cls-12" x1="6.67" y1="47.07" x2="13.99" y2="47.07"/><line class="cls-12" x1="8.27" y1="38.57" x2="8.27" y2="50.03"/><line class="cls-12" x1="10.33" y1="38.57" x2="10.33" y2="50.03"/><line class="cls-12" x1="12.38" y1="38.57" x2="12.38" y2="50.03"/><rect class="cls-10" x="20.92" y="39.13" width="2.5" height="10.25"/><rect class="cls-10" x="30.74" y="39.13" width="2.5" height="10.25"/><rect class="cls-8" x="23.42" y="38.57" width="7.32" height="11.46"/><path class="cls-11" d="M525.81,329.38v11.46h-7.32V329.38h7.32m0.25-.25h-7.82v12h7.82v-12h0Z" transform="translate(-495.07 -290.81)"/><line class="cls-12" x1="23.42" y1="41.58" x2="30.74" y2="41.58"/><line class="cls-12" x1="23.42" y1="44.6" x2="30.74" y2="44.6"/><line class="cls-12" x1="23.42" y1="47.07" x2="30.74" y2="47.07"/><line class="cls-12" x1="25.02" y1="38.57" x2="25.02" y2="50.03"/><line class="cls-12" x1="27.08" y1="38.57" x2="27.08" y2="50.03"/><line class="cls-12" x1="29.13" y1="38.57" x2="29.13" y2="50.03"/><rect class="cls-10" x="111.54" y="39.07" width="2.5" height="10.25"/><rect class="cls-10" x="121.36" y="39.07" width="2.5" height="10.25"/><rect class="cls-8" x="114.04" y="38.52" width="7.32" height="11.46"/><path class="cls-11" d="M616.43,329.33v11.46h-7.32V329.33h7.32m0.25-.25h-7.82v12h7.82v-12h0Z" transform="translate(-495.07 -290.81)"/><line class="cls-12" x1="114.04" y1="41.53" x2="121.36" y2="41.53"/><line class="cls-12" x1="114.04" y1="44.55" x2="121.36" y2="44.55"/><line class="cls-12" x1="114.04" y1="47.02" x2="121.36" y2="47.02"/><line class="cls-12" x1="115.65" y1="38.52" x2="115.65" y2="49.98"/><line class="cls-12" x1="117.7" y1="38.52" x2="117.7" y2="49.98"/><line class="cls-12" x1="119.76" y1="38.52" x2="119.76" y2="49.98"/><rect class="cls-10" x="130.17" y="39.07" width="2.5" height="10.25"/><rect class="cls-10" x="139.99" y="39.07" width="2.5" height="10.25"/><rect class="cls-8" x="132.67" y="38.52" width="7.32" height="11.46"/><path class="cls-11" d="M635.06,329.33v11.46h-7.32V329.33h7.32m0.25-.25h-7.82v12h7.82v-12h0Z" transform="translate(-495.07 -290.81)"/><line class="cls-12" x1="132.67" y1="41.53" x2="139.99" y2="41.53"/><line class="cls-12" x1="132.67" y1="44.55" x2="139.99" y2="44.55"/><line class="cls-12" x1="132.67" y1="47.02" x2="139.99" y2="47.02"/><line class="cls-12" x1="134.27" y1="38.52" x2="134.27" y2="49.98"/><line class="cls-12" x1="136.33" y1="38.52" x2="136.33" y2="49.98"/><line class="cls-12" x1="138.38" y1="38.52" x2="138.38" y2="49.98"/><rect class="cls-10" x="153.88" y="39.07" width="2.5" height="10.25"/><rect class="cls-10" x="163.7" y="39.07" width="2.5" height="10.25"/><rect class="cls-8" x="156.38" y="38.52" width="7.32" height="11.46"/><path class="cls-11" d="M658.77,329.33v11.46h-7.32V329.33h7.32m0.25-.25h-7.82v12H659v-12h0Z" transform="translate(-495.07 -290.81)"/><line class="cls-12" x1="156.38" y1="41.53" x2="163.7" y2="41.53"/><line class="cls-12" x1="156.38" y1="44.55" x2="163.7" y2="44.55"/><line class="cls-12" x1="156.38" y1="47.02" x2="163.7" y2="47.02"/><line class="cls-12" x1="157.99" y1="38.52" x2="157.99" y2="49.98"/><line class="cls-12" x1="160.04" y1="38.52" x2="160.04" y2="49.98"/><line class="cls-12" x1="162.1" y1="38.52" x2="162.1" y2="49.98"/><rect class="cls-10" x="173.88" y="39.07" width="2.5" height="10.25"/><rect class="cls-10" x="183.7" y="39.07" width="2.5" height="10.25"/><rect class="cls-8" x="176.38" y="38.52" width="7.32" height="11.46"/><path class="cls-11" d="M678.77,329.33v11.46h-7.32V329.33h7.32m0.25-.25h-7.82v12H679v-12h0Z" transform="translate(-495.07 -290.81)"/><line class="cls-12" x1="176.38" y1="41.53" x2="183.7" y2="41.53"/><line class="cls-12" x1="176.38" y1="44.55" x2="183.7" y2="44.55"/><line class="cls-12" x1="176.38" y1="47.02" x2="183.7" y2="47.02"/><line class="cls-12" x1="177.99" y1="38.52" x2="177.99" y2="49.98"/><line class="cls-12" x1="180.04" y1="38.52" x2="180.04" y2="49.98"/><line class="cls-12" x1="182.1" y1="38.52" x2="182.1" y2="49.98"/><rect class="cls-10" x="193.88" y="39.07" width="2.5" height="10.25"/><rect class="cls-10" x="203.7" y="39.07" width="2.5" height="10.25"/><rect class="cls-8" x="196.38" y="38.52" width="7.32" height="11.46"/><path class="cls-11" d="M698.77,329.33v11.46h-7.32V329.33h7.32m0.25-.25h-7.82v12H699v-12h0Z" transform="translate(-495.07 -290.81)"/><line class="cls-12" x1="196.38" y1="41.53" x2="203.7" y2="41.53"/><line class="cls-12" x1="196.38" y1="44.55" x2="203.7" y2="44.55"/><line class="cls-12" x1="196.38" y1="47.02" x2="203.7" y2="47.02"/><line class="cls-12" x1="197.99" y1="38.52" x2="197.99" y2="49.98"/><line class="cls-12" x1="200.04" y1="38.52" x2="200.04" y2="49.98"/><line class="cls-12" x1="202.1" y1="38.52" x2="202.1" y2="49.98"/><rect class="cls-10" x="221.99" y="39.07" width="2.5" height="10.25"/><rect class="cls-10" x="231.81" y="39.07" width="2.5" height="10.25"/><rect class="cls-8" x="224.49" y="38.52" width="7.32" height="11.46"/><path class="cls-11" d="M726.88,329.33v11.46h-7.32V329.33h7.32m0.25-.25h-7.82v12h7.82v-12h0Z" transform="translate(-495.07 -290.81)"/><line class="cls-12" x1="224.49" y1="41.53" x2="231.81" y2="41.53"/><line class="cls-12" x1="224.49" y1="44.55" x2="231.81" y2="44.55"/><line class="cls-12" x1="224.49" y1="47.02" x2="231.81" y2="47.02"/><line class="cls-12" x1="226.09" y1="38.52" x2="226.09" y2="49.98"/><line class="cls-12" x1="228.15" y1="38.52" x2="228.15" y2="49.98"/><line class="cls-12" x1="230.2" y1="38.52" x2="230.2" y2="49.98"/><rect class="cls-10" x="40.08" y="38.57" width="21" height="19.84"/><rect class="cls-10" x="94.21" y="42.01" width="8.62" height="16.41"/><rect class="cls-8" x="49.92" y="17.58" width="4.67" height="7.42"/><rect class="cls-13" x="87.92" y="36.75" width="2.06" height="21.67"/><rect class="cls-13" x="72.79" y="36.75" width="2.06" height="21.67"/><rect class="cls-14" x="124.35" y="0.5" width="11.69" height="6.25"/></svg>