<svg id="Layer_17" data-name="Layer 17" xmlns="http://www.w3.org/2000/svg" viewBox="0 0 167.42 90.83"><defs><style>.cls-1{fill:#bbbab8;}.cls-2{fill:#886f5a;}.cls-3{fill:#bdb9b9;}.cls-4{fill:#bebdbd;}.cls-5{fill:#846c55;}.cls-6{fill:#7a5f4a;}.cls-7{fill:#bdb7b9;}.cls-8{fill:#e2e2e4;}.cls-9{fill:#9c9798;}.cls-10{fill:#b4b2b0;}.cls-10,.cls-17{stroke:#82807f;stroke-width:0.75px;}.cls-10,.cls-13,.cls-15,.cls-17,.cls-21,.cls-22,.cls-23{stroke-miterlimit:10;}.cls-11{fill:#eeeded;}.cls-12{fill:#a1a09f;}.cls-13,.cls-15,.cls-17,.cls-22,.cls-23{fill:none;}.cls-13,.cls-15{stroke:#a1a09f;}.cls-13{stroke-width:0.39px;}.cls-14{fill:#4c4a4a;}.cls-15{stroke-width:0.39px;}.cls-16{fill:#46494a;}.cls-18{fill:#79614b;}.cls-19{fill:#b4b1b6;}.cls-20{fill:#504f4d;}.cls-21{fill:#e6e6e7;}.cls-21,.cls-22{stroke:#7a7975;}.cls-23{stroke:#828080;stroke-width:3px;}</style></defs><title>house16</title><rect class="cls-1" y="32.08" width="18.75" height="46.83"/><rect class="cls-2" y="7.25" width="18.75" height="24.83"/><rect class="cls-2" x="72.5" y="7.25" width="39.17" height="24.83"/><rect class="cls-2" x="111.67" y="25.28" width="55.75" height="33.18"/><rect class="cls-3" x="111.67" y="58.46" width="55.75" height="20.49"/><rect class="cls-4" x="72.5" y="57.9" width="39.17" height="20.87"/><rect class="cls-4" x="72.5" y="32.14" width="39.17" height="20.87"/><rect class="cls-5" x="72.5" y="53.08" width="39.17" height="4.82"/><rect class="cls-6" x="18.75" width="53.75" height="38.83"/><rect class="cls-7" x="18.75" y="38.83" width="53.75" height="22.08"/><rect class="cls-8" x="18.75" y="38.83" width="2.92" height="22.08"/><rect class="cls-8" x="69.58" y="38.83" width="2.92" height="22.08"/><rect class="cls-7" x="18.75" y="67.87" width="53.75" height="22.08"/><rect class="cls-9" x="18.75" y="89.96" width="53.75" height="0.87"/><rect class="cls-9" x="72.61" y="78.34" width="94.81" height="0.87"/><rect class="cls-9" y="78.34" width="18.75" height="0.87"/><rect class="cls-5" x="18.75" y="60.55" width="53.75" height="7.32"/><rect class="cls-8" x="18.75" y="67.87" width="2.92" height="22.08"/><rect class="cls-8" x="35.83" y="67.87" width="2.92" height="22.08"/><rect class="cls-10" x="25.69" y="73.5" width="7.08" height="15.54"/><rect class="cls-8" x="69.58" y="67.87" width="2.92" height="22.08"/><rect class="cls-11" x="5.13" y="36.04" width="9.23" height="15.08"/><path class="cls-12" d="M258.43,531.52V546.6h-9.23V531.52h9.23m0.77-.77H248.43v16.63h10.78V530.74h0Z" transform="translate(-244.07 -495.48)"/><line class="cls-13" x1="5.13" y1="40" x2="14.36" y2="40"/><line class="cls-13" x1="5.13" y1="43.97" x2="14.36" y2="43.97"/><line class="cls-13" x1="5.13" y1="47.22" x2="14.36" y2="47.22"/><line class="cls-13" x1="7.16" y1="36.04" x2="7.16" y2="51.12"/><line class="cls-13" x1="9.75" y1="36.04" x2="9.75" y2="51.12"/><line class="cls-13" x1="12.34" y1="36.04" x2="12.34" y2="51.12"/><rect class="cls-14" x="14.36" y="36.95" width="1.87" height="13.16"/><rect class="cls-14" x="3.26" y="36.95" width="1.87" height="13.16"/><rect class="cls-11" x="5.13" y="58.42" width="9.23" height="15.08"/><path class="cls-12" d="M258.43,553.9V569h-9.23V553.9h9.23m0.77-.77H248.43v16.63h10.78V553.12h0Z" transform="translate(-244.07 -495.48)"/><line class="cls-13" x1="5.13" y1="62.38" x2="14.36" y2="62.38"/><line class="cls-13" x1="5.13" y1="66.35" x2="14.36" y2="66.35"/><line class="cls-13" x1="5.13" y1="69.6" x2="14.36" y2="69.6"/><line class="cls-13" x1="7.16" y1="58.42" x2="7.16" y2="73.5"/><line class="cls-13" x1="9.75" y1="58.42" x2="9.75" y2="73.5"/><line class="cls-13" x1="12.34" y1="58.42" x2="12.34" y2="73.5"/><rect class="cls-14" x="14.36" y="59.34" width="1.87" height="13.16"/><rect class="cls-14" x="3.26" y="59.34" width="1.87" height="13.16"/><rect class="cls-11" x="24.54" y="42.58" width="9.39" height="15.08"/><path class="cls-12" d="M278,538.05v15.08h-9.39V538.05H278m0.78-.78H267.83v16.64h10.95V537.27h0Z" transform="translate(-244.07 -495.48)"/><line class="cls-15" x1="24.54" y1="46.54" x2="33.93" y2="46.54"/><line class="cls-15" x1="24.54" y1="50.5" x2="33.93" y2="50.5"/><line class="cls-15" x1="24.54" y1="53.76" x2="33.93" y2="53.76"/><line class="cls-15" x1="26.6" y1="42.58" x2="26.6" y2="57.65"/><line class="cls-15" x1="29.23" y1="42.58" x2="29.23" y2="57.65"/><line class="cls-15" x1="31.87" y1="42.58" x2="31.87" y2="57.65"/><rect class="cls-14" x="33.93" y="43.49" width="1.91" height="13.16"/><rect class="cls-14" x="22.63" y="43.49" width="1.91" height="13.16"/><rect class="cls-11" x="40.79" y="42.58" width="9.39" height="15.08"/><path class="cls-12" d="M294.25,538.05v15.08h-9.39V538.05h9.39m0.78-.78H284.08v16.64H295V537.27h0Z" transform="translate(-244.07 -495.48)"/><line class="cls-15" x1="40.79" y1="46.54" x2="50.18" y2="46.54"/><line class="cls-15" x1="40.79" y1="50.5" x2="50.18" y2="50.5"/><line class="cls-15" x1="40.79" y1="53.76" x2="50.18" y2="53.76"/><line class="cls-15" x1="42.85" y1="42.58" x2="42.85" y2="57.65"/><line class="cls-15" x1="45.48" y1="42.58" x2="45.48" y2="57.65"/><line class="cls-15" x1="48.12" y1="42.58" x2="48.12" y2="57.65"/><rect class="cls-14" x="50.18" y="43.49" width="1.91" height="13.16"/><rect class="cls-14" x="38.88" y="43.49" width="1.91" height="13.16"/><rect class="cls-11" x="57.04" y="42.58" width="9.39" height="15.08"/><path class="cls-12" d="M310.5,538.05v15.08h-9.39V538.05h9.39m0.78-.78H300.33v16.64h10.95V537.27h0Z" transform="translate(-244.07 -495.48)"/><line class="cls-15" x1="57.04" y1="46.54" x2="66.43" y2="46.54"/><line class="cls-15" x1="57.04" y1="50.5" x2="66.43" y2="50.5"/><line class="cls-15" x1="57.04" y1="53.76" x2="66.43" y2="53.76"/><line class="cls-15" x1="59.1" y1="42.58" x2="59.1" y2="57.65"/><line class="cls-15" x1="61.73" y1="42.58" x2="61.73" y2="57.65"/><line class="cls-15" x1="64.37" y1="42.58" x2="64.37" y2="57.65"/><rect class="cls-14" x="66.43" y="43.49" width="1.91" height="13.16"/><rect class="cls-14" x="55.13" y="43.49" width="1.91" height="13.16"/><rect class="cls-11" x="78.54" y="36.04" width="9.39" height="15.08"/><path class="cls-12" d="M332,531.52V546.6h-9.39V531.52H332m0.78-.78H321.83v16.64h10.95V530.74h0Z" transform="translate(-244.07 -495.48)"/><line class="cls-15" x1="78.54" y1="40" x2="87.93" y2="40"/><line class="cls-15" x1="78.54" y1="43.97" x2="87.93" y2="43.97"/><line class="cls-15" x1="78.54" y1="47.22" x2="87.93" y2="47.22"/><line class="cls-15" x1="80.6" y1="36.04" x2="80.6" y2="51.12"/><line class="cls-15" x1="83.23" y1="36.04" x2="83.23" y2="51.12"/><line class="cls-15" x1="85.87" y1="36.04" x2="85.87" y2="51.12"/><rect class="cls-14" x="87.93" y="36.95" width="1.91" height="13.16"/><rect class="cls-14" x="76.63" y="36.95" width="1.91" height="13.16"/><rect class="cls-11" x="94.79" y="36.04" width="9.39" height="15.08"/><path class="cls-12" d="M348.25,531.52V546.6h-9.39V531.52h9.39m0.78-.78H338.08v16.64H349V530.74h0Z" transform="translate(-244.07 -495.48)"/><line class="cls-15" x1="94.79" y1="40" x2="104.18" y2="40"/><line class="cls-15" x1="94.79" y1="43.97" x2="104.18" y2="43.97"/><line class="cls-15" x1="94.79" y1="47.22" x2="104.18" y2="47.22"/><line class="cls-15" x1="96.85" y1="36.04" x2="96.85" y2="51.12"/><line class="cls-15" x1="99.48" y1="36.04" x2="99.48" y2="51.12"/><line class="cls-15" x1="102.12" y1="36.04" x2="102.12" y2="51.12"/><rect class="cls-14" x="104.18" y="36.95" width="1.91" height="13.16"/><rect class="cls-14" x="92.88" y="36.95" width="1.91" height="13.16"/><rect class="cls-11" x="78.54" y="60.41" width="9.39" height="15.08"/><path class="cls-12" d="M332,555.89V571h-9.39V555.89H332m0.78-.78H321.83v16.64h10.95V555.11h0Z" transform="translate(-244.07 -495.48)"/><line class="cls-15" x1="78.54" y1="64.38" x2="87.93" y2="64.38"/><line class="cls-15" x1="78.54" y1="68.34" x2="87.93" y2="68.34"/><line class="cls-15" x1="78.54" y1="71.6" x2="87.93" y2="71.6"/><line class="cls-15" x1="80.6" y1="60.41" x2="80.6" y2="75.49"/><line class="cls-15" x1="83.23" y1="60.41" x2="83.23" y2="75.49"/><line class="cls-15" x1="85.87" y1="60.41" x2="85.87" y2="75.49"/><rect class="cls-14" x="87.93" y="61.33" width="1.91" height="13.16"/><rect class="cls-14" x="76.63" y="61.33" width="1.91" height="13.16"/><rect class="cls-11" x="94.79" y="60.41" width="9.39" height="15.08"/><path class="cls-12" d="M348.25,555.89V571h-9.39V555.89h9.39m0.78-.78H338.08v16.64H349V555.11h0Z" transform="translate(-244.07 -495.48)"/><line class="cls-15" x1="94.79" y1="64.38" x2="104.18" y2="64.38"/><line class="cls-15" x1="94.79" y1="68.34" x2="104.18" y2="68.34"/><line class="cls-15" x1="94.79" y1="71.6" x2="104.18" y2="71.6"/><line class="cls-15" x1="96.85" y1="60.41" x2="96.85" y2="75.49"/><line class="cls-15" x1="99.48" y1="60.41" x2="99.48" y2="75.49"/><line class="cls-15" x1="102.12" y1="60.41" x2="102.12" y2="75.49"/><rect class="cls-14" x="104.18" y="61.33" width="1.91" height="13.16"/><rect class="cls-14" x="92.88" y="61.33" width="1.91" height="13.16"/><rect class="cls-11" x="40.79" y="70.07" width="9.39" height="15.08"/><path class="cls-12" d="M294.25,565.55v15.08h-9.39V565.55h9.39m0.78-.78H284.08v16.64H295V564.77h0Z" transform="translate(-244.07 -495.48)"/><line class="cls-15" x1="40.79" y1="74.03" x2="50.18" y2="74.03"/><line class="cls-15" x1="40.79" y1="78" x2="50.18" y2="78"/><line class="cls-15" x1="40.79" y1="81.25" x2="50.18" y2="81.25"/><line class="cls-15" x1="42.85" y1="70.07" x2="42.85" y2="85.15"/><line class="cls-15" x1="45.48" y1="70.07" x2="45.48" y2="85.15"/><line class="cls-15" x1="48.12" y1="70.07" x2="48.12" y2="85.15"/><rect class="cls-14" x="50.18" y="70.98" width="1.91" height="13.16"/><rect class="cls-14" x="38.88" y="70.98" width="1.91" height="13.16"/><rect class="cls-11" x="57.99" y="70.07" width="9.39" height="15.08"/><path class="cls-12" d="M311.45,565.55v15.08h-9.39V565.55h9.39m0.78-.78H301.29v16.64h10.95V564.77h0Z" transform="translate(-244.07 -495.48)"/><line class="cls-15" x1="57.99" y1="74.03" x2="67.38" y2="74.03"/><line class="cls-15" x1="57.99" y1="78" x2="67.38" y2="78"/><line class="cls-15" x1="57.99" y1="81.25" x2="67.38" y2="81.25"/><line class="cls-15" x1="60.05" y1="70.07" x2="60.05" y2="85.15"/><line class="cls-15" x1="62.69" y1="70.07" x2="62.69" y2="85.15"/><line class="cls-15" x1="65.32" y1="70.07" x2="65.32" y2="85.15"/><rect class="cls-14" x="67.38" y="70.98" width="1.91" height="13.16"/><rect class="cls-14" x="56.09" y="70.98" width="1.91" height="13.16"/><polygon class="cls-16" points="28.75 60.55 38.75 67.88 18.75 67.88 28.75 60.55"/><line class="cls-17" x1="25.69" y1="81.25" x2="32.78" y2="81.25"/><rect class="cls-18" x="124.67" y="30.08" width="30.13" height="6.87"/><rect class="cls-19" x="124.67" y="36.95" width="30.13" height="16.13"/><rect class="cls-20" x="131.1" y="40.83" width="3.06" height="9.88"/><rect class="cls-20" x="144.98" y="40.83" width="3.06" height="9.88"/><rect class="cls-21" x="134.32" y="40.83" width="10.81" height="9.88"/><line class="cls-22" x1="134.48" y1="45.77" x2="145.14" y2="45.77"/><polyline class="cls-23" points="116.58 78.95 116.58 62.2 160.58 62.2 160.58 78.95"/></svg>