<svg id="Layer_16" data-name="Layer 16" xmlns="http://www.w3.org/2000/svg" xmlns:xlink="http://www.w3.org/1999/xlink" viewBox="0 0 216.56 95.94"><defs><style>.cls-1,.cls-21,.cls-22,.cls-23,.cls-24,.cls-29,.cls-3{fill:none;}.cls-2{fill:#babbb6;}.cls-3{stroke:#a1a19e;}.cls-17,.cls-21,.cls-22,.cls-23,.cls-24,.cls-25,.cls-29,.cls-3{stroke-miterlimit:10;}.cls-17,.cls-3{stroke-width:0.5px;}.cls-4{fill:#e7dec0;}.cls-5{fill:#c3c4c0;}.cls-6{fill:#dadbd7;}.cls-7{fill:url(#New_Pattern);}.cls-10,.cls-8{fill:#e7e6e9;}.cls-8{opacity:0.29;}.cls-9{fill:#bbbbb6;}.cls-11{fill:#9c9b9d;}.cls-12{fill:#e6e5e6;}.cls-13{fill:#6e6b6a;}.cls-14{fill:#b0b5b6;}.cls-15{fill:#e5e5e7;}.cls-16{fill:#d4d3cb;}.cls-17{fill:#d8d9dc;stroke:#919194;}.cls-18{fill:#545251;}.cls-19{fill:#eeeded;}.cls-20{fill:#a1abac;}.cls-21,.cls-22,.cls-23,.cls-24{stroke:#a1abac;}.cls-21{stroke-width:0.38px;}.cls-22{stroke-width:0.44px;}.cls-23{stroke-width:0.5px;}.cls-24{stroke-width:0.54px;}.cls-25{fill:#3f4a52;stroke:#f2faff;}.cls-26{fill:#e4e4e5;}.cls-27{fill:#eef7fd;}.cls-28{fill:#898f91;}.cls-29{stroke:#898f91;stroke-width:0.91px;}.cls-30{fill:#696969;}.cls-31{fill:#595857;}</style><pattern id="New_Pattern" data-name="New Pattern" x="-9.76" y="-490.56" width="24.19" height="23" patternUnits="userSpaceOnUse" viewBox="0 0 24.19 23"><rect class="cls-1" width="24.19" height="23"/><rect class="cls-2" x="0.25" y="21.81" width="23.69" height="2.38"/><rect class="cls-3" x="0.25" y="21.81" width="23.69" height="2.38"/><rect class="cls-2" x="12.34" y="18.94" width="23.69" height="2.38"/><rect class="cls-3" x="12.34" y="18.94" width="23.69" height="2.38"/><rect class="cls-2" x="-11.84" y="18.94" width="23.69" height="2.38"/><rect class="cls-3" x="-11.84" y="18.94" width="23.69" height="2.38"/><rect class="cls-2" x="0.25" y="16.06" width="23.69" height="2.38"/><rect class="cls-3" x="0.25" y="16.06" width="23.69" height="2.38"/><rect class="cls-2" x="12.34" y="13.19" width="23.69" height="2.38"/><rect class="cls-3" x="12.34" y="13.19" width="23.69" height="2.38"/><rect class="cls-2" x="-11.84" y="13.19" width="23.69" height="2.38"/><rect class="cls-3" x="-11.84" y="13.19" width="23.69" height="2.38"/><rect class="cls-2" x="0.25" y="10.31" width="23.69" height="2.38"/><rect class="cls-3" x="0.25" y="10.31" width="23.69" height="2.38"/><rect class="cls-2" x="12.34" y="7.44" width="23.69" height="2.38"/><rect class="cls-3" x="12.34" y="7.44" width="23.69" height="2.38"/><rect class="cls-2" x="-11.84" y="7.44" width="23.69" height="2.38"/><rect class="cls-3" x="-11.84" y="7.44" width="23.69" height="2.38"/><rect class="cls-2" x="0.25" y="4.56" width="23.69" height="2.38"/><rect class="cls-3" x="0.25" y="4.56" width="23.69" height="2.38"/><rect class="cls-2" x="12.34" y="1.69" width="23.69" height="2.38"/><rect class="cls-3" x="12.34" y="1.69" width="23.69" height="2.38"/><rect class="cls-2" x="-11.84" y="1.69" width="23.69" height="2.38"/><rect class="cls-3" x="-11.84" y="1.69" width="23.69" height="2.38"/><rect class="cls-2" x="0.25" y="-1.19" width="23.69" height="2.38"/><rect class="cls-3" x="0.25" y="-1.19" width="23.69" height="2.38"/></pattern></defs><title>house15</title><polygon class="cls-4" points="68.56 12.17 216.56 12.17 216.56 67 76.48 67 76.35 74.96 0 74.96 0 58.83 68.56 12.17"/><rect class="cls-5" x="77.04" y="37.31" width="25.13" height="16.25"/><polygon class="cls-5" points="78.2 36.81 89.6 24.73 101.01 36.81 78.2 36.81"/><path class="cls-6" d="M99.36,516l10.24,10.86H89.12L99.36,516m0-1.46L86.8,527.87h25.12L99.36,514.56h0Z" transform="translate(-9.76 -490.56)"/><polygon class="cls-7" points="208.1 60.86 151.98 3.12 94.23 60.86 188.76 60.86 208.1 60.86"/><polygon class="cls-8" points="208.1 60.86 151.98 3.12 94.23 60.86 188.76 60.86 208.1 60.86"/><polygon class="cls-9" points="177.25 29.12 125.98 29.12 151.98 3.12 177.25 29.12"/><path class="cls-10" d="M161.7,499.38l22.44,23.09,24.26,25H113.65l48.05-48.05m0-5.7L104,551.43H217.87L187,519.68l-25.27-26h0Z" transform="translate(-9.76 -490.56)"/><rect class="cls-10" x="130.56" y="27.12" width="41.67" height="1.83"/><rect class="cls-11" x="94.23" y="60.87" width="94.53" height="6.14"/><rect class="cls-7" x="76.48" y="67" width="140.08" height="27.88"/><rect class="cls-8" x="76.48" y="67" width="140.08" height="27.88"/><rect class="cls-12" x="132.23" y="31.07" width="36.58" height="59.6"/><rect class="cls-13" x="132.23" y="31.07" width="36.58" height="18.6"/><rect class="cls-13" x="132.23" y="71.97" width="36.58" height="14.02"/><rect class="cls-7" y="74.96" width="76.35" height="20.35"/><polygon class="cls-10" points="24.65 74.04 6.77 74.04 5.44 77.25 5.44 94.5 25.98 94.5 25.98 77.25 24.65 74.04"/><rect class="cls-14" x="6.19" y="79.17" width="3.88" height="2.71"/><rect class="cls-14" x="6.19" y="83" width="3.88" height="2.71"/><rect class="cls-14" x="6.19" y="86.83" width="3.88" height="2.71"/><rect class="cls-14" x="6.19" y="90.67" width="3.88" height="2.71"/><rect class="cls-14" x="11.31" y="79.17" width="3.88" height="2.71"/><rect class="cls-14" x="11.31" y="83" width="3.88" height="2.71"/><rect class="cls-14" x="11.31" y="86.83" width="3.88" height="2.71"/><rect class="cls-14" x="11.31" y="90.67" width="3.88" height="2.71"/><rect class="cls-14" x="16.44" y="79.17" width="3.88" height="2.71"/><rect class="cls-14" x="16.44" y="83" width="3.88" height="2.71"/><rect class="cls-14" x="16.44" y="86.83" width="3.88" height="2.71"/><rect class="cls-14" x="16.44" y="90.67" width="3.88" height="2.71"/><rect class="cls-14" x="21.56" y="79.17" width="3.88" height="2.71"/><rect class="cls-14" x="21.56" y="83" width="3.88" height="2.71"/><rect class="cls-14" x="21.56" y="86.83" width="3.88" height="2.71"/><rect class="cls-14" x="21.56" y="90.67" width="3.88" height="2.71"/><polygon class="cls-10" points="72.9 74.04 55.02 74.04 53.69 77.25 53.69 94.5 74.23 94.5 74.23 77.25 72.9 74.04"/><rect class="cls-14" x="54.44" y="79.17" width="3.88" height="2.71"/><rect class="cls-14" x="54.44" y="83" width="3.88" height="2.71"/><rect class="cls-14" x="54.44" y="86.83" width="3.88" height="2.71"/><rect class="cls-14" x="54.44" y="90.67" width="3.88" height="2.71"/><rect class="cls-14" x="59.56" y="79.17" width="3.88" height="2.71"/><rect class="cls-14" x="59.56" y="83" width="3.88" height="2.71"/><rect class="cls-14" x="59.56" y="86.83" width="3.88" height="2.71"/><rect class="cls-14" x="59.56" y="90.67" width="3.88" height="2.71"/><rect class="cls-14" x="64.69" y="79.17" width="3.88" height="2.71"/><rect class="cls-14" x="64.69" y="83" width="3.88" height="2.71"/><rect class="cls-14" x="64.69" y="86.83" width="3.88" height="2.71"/><rect class="cls-14" x="64.69" y="90.67" width="3.88" height="2.71"/><rect class="cls-14" x="69.81" y="79.17" width="3.88" height="2.71"/><rect class="cls-14" x="69.81" y="83" width="3.88" height="2.71"/><rect class="cls-14" x="69.81" y="86.83" width="3.88" height="2.71"/><rect class="cls-14" x="69.81" y="90.67" width="3.88" height="2.71"/><rect class="cls-15" x="29.41" y="69.71" width="21" height="15.41"/><rect class="cls-16" x="29.41" y="64.11" width="21" height="5.59"/><rect class="cls-17" x="42.45" y="74.38" width="5.08" height="6.48"/><rect class="cls-17" x="37.37" y="74.38" width="5.08" height="6.48"/><rect class="cls-17" x="32.28" y="74.38" width="5.08" height="6.48"/><rect class="cls-18" x="82.23" y="71.97" width="3.31" height="10.85"/><rect class="cls-18" x="93.28" y="71.97" width="3.87" height="10.85"/><rect class="cls-19" x="85.35" y="71.78" width="8.12" height="11.24"/><path class="cls-20" d="M103,562.53v10.85H95.3V562.53H103m0.38-.38H94.92v11.62h8.51V562.15h0Z" transform="translate(-9.76 -490.56)"/><line class="cls-21" x1="89.41" y1="71.97" x2="89.41" y2="82.82"/><line class="cls-21" x1="85.54" y1="74.14" x2="93.28" y2="74.14"/><line class="cls-21" x1="85.54" y1="76.31" x2="93.28" y2="76.31"/><line class="cls-21" x1="85.54" y1="78.48" x2="93.28" y2="78.48"/><line class="cls-21" x1="85.54" y1="80.65" x2="93.28" y2="80.65"/><line class="cls-21" x1="85.54" y1="82.82" x2="93.28" y2="82.82"/><line class="cls-21" x1="85.54" y1="71.97" x2="93.28" y2="71.97"/><rect class="cls-18" x="82.23" y="39.66" width="3.31" height="10.85"/><rect class="cls-18" x="93.28" y="39.66" width="3.87" height="10.85"/><rect class="cls-19" x="85.35" y="39.47" width="8.12" height="11.24"/><path class="cls-20" d="M103,530.23v10.85H95.3V530.23H103m0.38-.38H94.92v11.62h8.51V529.84h0Z" transform="translate(-9.76 -490.56)"/><line class="cls-21" x1="89.41" y1="39.66" x2="89.41" y2="50.51"/><line class="cls-21" x1="85.54" y1="41.83" x2="93.28" y2="41.83"/><line class="cls-21" x1="85.54" y1="44" x2="93.28" y2="44"/><line class="cls-21" x1="85.54" y1="46.17" x2="93.28" y2="46.17"/><line class="cls-21" x1="85.54" y1="48.34" x2="93.28" y2="48.34"/><line class="cls-21" x1="85.54" y1="50.51" x2="93.28" y2="50.51"/><line class="cls-21" x1="85.54" y1="39.66" x2="93.28" y2="39.66"/><rect class="cls-18" x="133.73" y="71.98" width="3.31" height="14"/><rect class="cls-18" x="144.78" y="71.98" width="3.87" height="14"/><rect class="cls-19" x="136.82" y="71.77" width="8.17" height="14.44"/><path class="cls-20" d="M154.54,562.55v14H146.8v-14h7.74m0.44-.44h-8.61V577H155V562.11h0Z" transform="translate(-9.76 -490.56)"/><line class="cls-22" x1="140.91" y1="71.98" x2="140.91" y2="85.98"/><line class="cls-22" x1="137.04" y1="74.78" x2="144.78" y2="74.78"/><line class="cls-22" x1="137.04" y1="77.58" x2="144.78" y2="77.58"/><line class="cls-22" x1="137.04" y1="80.38" x2="144.78" y2="80.38"/><line class="cls-22" x1="137.04" y1="83.18" x2="144.78" y2="83.18"/><line class="cls-22" x1="137.04" y1="85.98" x2="144.78" y2="85.98"/><line class="cls-22" x1="137.04" y1="71.98" x2="144.78" y2="71.98"/><rect class="cls-18" x="151.98" y="71.98" width="3.31" height="14"/><rect class="cls-18" x="163.03" y="71.98" width="3.87" height="14"/><rect class="cls-19" x="155.07" y="71.77" width="8.17" height="14.44"/><path class="cls-20" d="M172.79,562.55v14h-7.74v-14h7.74m0.44-.44h-8.61V577h8.61V562.11h0Z" transform="translate(-9.76 -490.56)"/><line class="cls-22" x1="159.16" y1="71.98" x2="159.16" y2="85.98"/><line class="cls-22" x1="155.29" y1="74.78" x2="163.03" y2="74.78"/><line class="cls-22" x1="155.29" y1="77.58" x2="163.03" y2="77.58"/><line class="cls-22" x1="155.29" y1="80.38" x2="163.03" y2="80.38"/><line class="cls-22" x1="155.29" y1="83.18" x2="163.03" y2="83.18"/><line class="cls-22" x1="155.29" y1="85.98" x2="163.03" y2="85.98"/><line class="cls-22" x1="155.29" y1="71.98" x2="163.03" y2="71.98"/><rect class="cls-18" x="133.73" y="31.07" width="3.31" height="18.6"/><rect class="cls-18" x="144.78" y="31.07" width="3.87" height="18.6"/><rect class="cls-19" x="136.79" y="30.81" width="8.24" height="19.1"/><path class="cls-20" d="M154.54,521.63v18.6H146.8v-18.6h7.74m0.5-.5H146.3v19.61H155V521.13h0Z" transform="translate(-9.76 -490.56)"/><line class="cls-23" x1="140.91" y1="31.07" x2="140.91" y2="49.67"/><line class="cls-23" x1="137.04" y1="34.79" x2="144.78" y2="34.79"/><line class="cls-23" x1="137.04" y1="38.51" x2="144.78" y2="38.51"/><line class="cls-23" x1="137.04" y1="42.23" x2="144.78" y2="42.23"/><line class="cls-23" x1="137.04" y1="45.95" x2="144.78" y2="45.95"/><line class="cls-23" x1="137.04" y1="49.67" x2="144.78" y2="49.67"/><line class="cls-23" x1="137.04" y1="31.07" x2="144.78" y2="31.07"/><rect class="cls-18" x="151.98" y="31.07" width="3.31" height="18.6"/><rect class="cls-18" x="163.03" y="31.07" width="3.87" height="18.6"/><rect class="cls-19" x="155.04" y="30.81" width="8.24" height="19.1"/><path class="cls-20" d="M172.79,521.63v18.6h-7.74v-18.6h7.74m0.5-.5h-8.74v19.61h8.74V521.13h0Z" transform="translate(-9.76 -490.56)"/><line class="cls-23" x1="159.16" y1="31.07" x2="159.16" y2="49.67"/><line class="cls-23" x1="155.29" y1="34.79" x2="163.03" y2="34.79"/><line class="cls-23" x1="155.29" y1="38.51" x2="163.03" y2="38.51"/><line class="cls-23" x1="155.29" y1="42.23" x2="163.03" y2="42.23"/><line class="cls-23" x1="155.29" y1="45.95" x2="163.03" y2="45.95"/><line class="cls-23" x1="155.29" y1="49.67" x2="163.03" y2="49.67"/><line class="cls-23" x1="155.29" y1="31.07" x2="163.03" y2="31.07"/><rect class="cls-18" x="107.73" y="71.97" width="3.83" height="17.95"/><rect class="cls-18" x="120.51" y="71.97" width="4.47" height="17.95"/><rect class="cls-19" x="111.29" y="71.44" width="9.49" height="19.01"/><path class="cls-20" d="M130.27,562.27v18.47h-8.95V562.27h8.95m0.54-.54h-10v19.55h10V561.73h0Z" transform="translate(-9.76 -490.56)"/><line class="cls-24" x1="116.03" y1="71.71" x2="116.03" y2="90.18"/><line class="cls-24" x1="111.56" y1="75.4" x2="120.51" y2="75.4"/><line class="cls-24" x1="111.56" y1="79.1" x2="120.51" y2="79.1"/><line class="cls-24" x1="111.56" y1="82.79" x2="120.51" y2="82.79"/><line class="cls-24" x1="111.56" y1="86.48" x2="120.51" y2="86.48"/><line class="cls-24" x1="111.56" y1="90.18" x2="120.51" y2="90.18"/><line class="cls-24" x1="111.56" y1="71.71" x2="120.51" y2="71.71"/><ellipse class="cls-25" cx="178.7" cy="78.78" rx="3.97" ry="5.34"/><rect class="cls-18" x="189.29" y="93.13" width="18.81" height="2.81"/><rect class="cls-26" x="189.29" y="65.38" width="2.88" height="27.75"/><rect class="cls-26" x="205.23" y="65.38" width="2.88" height="27.75"/><rect class="cls-27" x="192.62" y="71.33" width="8.59" height="21.34"/><path class="cls-28" d="M210.52,562.35v20.43h-7.68V562.35h7.68m0.91-.91h-9.5v22.25h9.5V561.44h0Z" transform="translate(-9.76 -490.56)"/><line class="cls-29" x1="192.17" y1="82" x2="201.17" y2="82"/><polygon class="cls-30" points="185.12 65.83 198.49 52.73 211.86 65.83 185.12 65.83"/><path class="cls-26" d="M208.25,544.7l10.92,10.7H197.33l10.92-10.7m0-2.8-15.82,15.5h31.65l-15.82-15.5h0Z" transform="translate(-9.76 -490.56)"/><rect class="cls-10" x="148.65" y="17" width="6.64" height="9.17"/><rect class="cls-31" x="205.23" width="11.33" height="24.33"/></svg>