<svg id="Layer_6" data-name="Layer 6" xmlns="http://www.w3.org/2000/svg" viewBox="0 0 190.58 117"><defs><style>.cls-1{fill:#bcbdb7;}.cls-2{fill:#8f8f93;}.cls-3{fill:#c2af6a;}.cls-4{fill:#575955;}.cls-5{fill:#868586;}.cls-6{fill:#abaaac;}.cls-7{fill:#f5fbfd;}.cls-8{fill:#f2fafd;}.cls-9{fill:#484848;}</style></defs><title>house5</title><rect class="cls-1" width="101.75" height="5.75"/><rect class="cls-2" y="5.75" width="101.75" height="15.17"/><rect class="cls-3" y="20.92" width="101.75" height="26.83"/><rect class="cls-3" y="47.75" width="101.75" height="24.17"/><rect class="cls-2" y="71.92" width="101.75" height="41.5"/><rect class="cls-3" x="101.75" y="20.92" width="21.67" height="42"/><rect class="cls-4" x="101.75" y="62.92" width="21.67" height="37.58"/><rect class="cls-5" x="101.75" y="112.87" width="21.67" height="2.06"/><rect class="cls-6" x="101.75" y="114.94" width="21.67" height="2.06"/><rect class="cls-5" x="101.75" y="108.75" width="21.67" height="2.06"/><rect class="cls-6" x="101.75" y="110.81" width="21.67" height="2.06"/><rect class="cls-5" x="101.75" y="104.62" width="21.67" height="2.06"/><rect class="cls-6" x="101.75" y="106.69" width="21.67" height="2.06"/><rect class="cls-5" x="101.75" y="100.5" width="21.67" height="2.06"/><rect class="cls-6" x="101.75" y="102.56" width="21.67" height="2.06"/><rect class="cls-3" x="123.42" y="11.92" width="67.17" height="22.42"/><rect class="cls-3" x="123.42" y="47.75" width="67.17" height="24.17"/><rect class="cls-2" x="123.42" y="71.92" width="67.17" height="41.99"/><rect class="cls-7" x="3.13" y="8.5" width="9.25" height="9.25"/><rect class="cls-7" x="32.25" y="8.5" width="9.25" height="9.25"/><rect class="cls-7" x="61.38" y="8.5" width="9.25" height="9.25"/><rect class="cls-7" x="90.5" y="8.5" width="9.25" height="9.25"/><rect class="cls-7" x="14.5" y="9.5" width="15.63" height="7"/><rect class="cls-7" x="43.63" y="9.5" width="15.63" height="7"/><rect class="cls-7" x="72.75" y="9.5" width="15.63" height="7"/><rect class="cls-8" x="67.75" y="47.75" width="34" height="24.17"/><rect class="cls-2" x="123.42" y="34.33" width="67.17" height="13.42"/><rect class="cls-7" x="136.33" y="77.33" width="9.42" height="19.5"/><rect class="cls-7" x="146.83" y="77.33" width="9.42" height="19.5"/><rect class="cls-7" x="157.33" y="77.33" width="9.42" height="19.5"/><rect class="cls-7" x="167.83" y="77.33" width="9.42" height="19.5"/><rect class="cls-8" x="57.58" y="74.42" width="19.5" height="10.17"/><rect class="cls-8" x="78.08" y="74.42" width="19.5" height="10.17"/><rect class="cls-9" x="106.77" y="74.42" width="11.63" height="25.21"/></svg>