<svg id="Layer_18" data-name="Layer 18" xmlns="http://www.w3.org/2000/svg" viewBox="0 0 135.7 103.54"><defs><style>.cls-1{fill:#30414b;}.cls-2{fill:#97a5a3;}.cls-3{fill:#b6b3b2;}.cls-4{fill:#18303b;}.cls-5{fill:#afc4c1;}.cls-6{fill:#869693;}.cls-7{fill:#e5e5e7;}.cls-8{fill:#2f363b;}.cls-9{fill:#9c9c9c;}.cls-10{fill:#b1b7b7;}.cls-11{fill:#bbbeb7;}.cls-12{fill:#e6e7e9;}.cls-13{fill:#565554;stroke:#9e9e9e;}.cls-13,.cls-16,.cls-17,.cls-18,.cls-19{stroke-miterlimit:10;}.cls-14{fill:#ebecee;}.cls-15{fill:#3b4c54;}.cls-16,.cls-17,.cls-18,.cls-23{fill:#e6e6e6;}.cls-16,.cls-17,.cls-19{stroke:#a1a1a1;}.cls-16,.cls-19{stroke-width:0.75px;}.cls-17{stroke-width:0.77px;}.cls-18{stroke:#c2c2c2;stroke-width:0.5px;}.cls-19{fill:none;}.cls-20{fill:#eaeff2;}.cls-21{fill:#768582;}.cls-22{fill:#889996;}.cls-24{fill:#a1a1a1;}.cls-25{fill:#909493;}</style></defs><title>house17</title><polygon class="cls-1" points="0.16 30.56 135.7 30.56 128.65 0 7.21 0 0.16 30.56"/><rect class="cls-2" x="41.75" y="40.21" width="52.13" height="57.45"/><path class="cls-3" d="M488.22,526.44c-6.4,0-11,4-11,9v37H499.8v-37C499.8,530.48,494.61,526.44,488.22,526.44Z" transform="translate(-420.36 -481.4)"/><rect class="cls-4" x="57.5" y="79.17" width="3.31" height="18.06"/><rect class="cls-4" x="75.5" y="79.17" width="3.31" height="18.06"/><rect class="cls-5" x="41.75" y="91.03" width="52.13" height="1.31"/><rect class="cls-6" y="38.42" width="35.63" height="65.13"/><rect class="cls-6" x="100.07" y="38.42" width="35.63" height="65.13"/><rect class="cls-7" x="35.63" y="40.21" width="6.13" height="63.33"/><rect class="cls-7" x="93.88" y="40.21" width="6.13" height="63.33"/><rect class="cls-8" x="41.75" y="97.67" width="52.13" height="5.88"/><rect class="cls-9" y="35.42" width="35.63" height="3"/><rect class="cls-10" y="30.79" width="35.63" height="4.63"/><rect class="cls-9" x="100.07" y="35.42" width="35.63" height="3"/><rect class="cls-10" x="100.07" y="30.79" width="35.63" height="4.63"/><rect class="cls-9" x="30.63" y="33.33" width="73.92" height="3.59"/><rect class="cls-11" x="34.17" y="36.62" width="66.83" height="3.59"/><rect class="cls-10" x="30.63" y="27.79" width="73.92" height="5.53"/><polygon class="cls-12" points="104.54 27.79 30.63 27.79 67.58 0 104.54 27.79"/><polygon class="cls-13" points="95.96 25.5 67.58 4.14 39.21 25.5 95.96 25.5"/><rect class="cls-14" x="3.71" y="73.17" width="27.85" height="2.25"/><polygon class="cls-15" points="25.94 65.79 9.33 65.79 3.71 73.17 31.56 73.17 25.94 65.79"/><rect class="cls-16" x="3.71" y="75.42" width="5.25" height="18.75"/><rect class="cls-16" x="26.31" y="75.42" width="5.25" height="18.75"/><rect class="cls-16" x="8.96" y="75.42" width="8.23" height="18.75"/><rect class="cls-17" x="17.64" y="75.42" width="8.68" height="18.75"/><line class="cls-18" x1="12.13" y1="75.42" x2="12.13" y2="94.17"/><line class="cls-18" x1="14.19" y1="75.42" x2="14.19" y2="94.17"/><line class="cls-18" x1="20.94" y1="75.42" x2="20.94" y2="94.17"/><line class="cls-18" x1="23.01" y1="75.42" x2="23.01" y2="94.17"/><line class="cls-16" x1="3.71" y1="80.54" x2="31.56" y2="80.54"/><line class="cls-16" x1="3.71" y1="84.54" x2="31.56" y2="84.54"/><line class="cls-16" x1="3.71" y1="88.54" x2="31.56" y2="88.54"/><rect class="cls-16" x="4.29" y="39.36" width="7.83" height="19.22"/><line class="cls-18" x1="7.21" y1="39.36" x2="7.21" y2="58.58"/><line class="cls-18" x1="8.96" y1="39.36" x2="8.96" y2="58.58"/><line class="cls-19" x1="4.29" y1="44.5" x2="12.13" y2="44.5"/><line class="cls-19" x1="4.29" y1="48.97" x2="12.13" y2="48.97"/><line class="cls-19" x1="4.29" y1="53.5" x2="12.13" y2="53.5"/><rect class="cls-16" x="23.73" y="39.36" width="7.83" height="19.22"/><line class="cls-18" x1="26.65" y1="39.36" x2="26.65" y2="58.58"/><line class="cls-18" x1="28.4" y1="39.36" x2="28.4" y2="58.58"/><line class="cls-19" x1="23.73" y1="44.5" x2="31.56" y2="44.5"/><line class="cls-19" x1="23.73" y1="48.97" x2="31.56" y2="48.97"/><line class="cls-19" x1="23.73" y1="53.5" x2="31.56" y2="53.5"/><rect class="cls-14" x="103.96" y="73.17" width="27.85" height="2.25"/><polygon class="cls-15" points="126.19 65.79 109.58 65.79 103.96 73.17 131.81 73.17 126.19 65.79"/><rect class="cls-16" x="103.96" y="75.42" width="5.25" height="18.75"/><rect class="cls-16" x="126.56" y="75.42" width="5.25" height="18.75"/><rect class="cls-16" x="109.21" y="75.42" width="8.23" height="18.75"/><rect class="cls-17" x="117.89" y="75.42" width="8.68" height="18.75"/><line class="cls-18" x1="112.38" y1="75.42" x2="112.38" y2="94.17"/><line class="cls-18" x1="114.44" y1="75.42" x2="114.44" y2="94.17"/><line class="cls-18" x1="121.19" y1="75.42" x2="121.19" y2="94.17"/><line class="cls-18" x1="123.26" y1="75.42" x2="123.26" y2="94.17"/><line class="cls-16" x1="103.96" y1="80.54" x2="131.81" y2="80.54"/><line class="cls-16" x1="103.96" y1="84.54" x2="131.81" y2="84.54"/><line class="cls-16" x1="103.96" y1="88.54" x2="131.81" y2="88.54"/><rect class="cls-16" x="104.54" y="39.36" width="7.83" height="19.22"/><line class="cls-18" x1="107.46" y1="39.36" x2="107.46" y2="58.58"/><line class="cls-18" x1="109.21" y1="39.36" x2="109.21" y2="58.58"/><line class="cls-19" x1="104.54" y1="44.5" x2="112.38" y2="44.5"/><line class="cls-19" x1="104.54" y1="48.97" x2="112.38" y2="48.97"/><line class="cls-19" x1="104.54" y1="53.5" x2="112.38" y2="53.5"/><rect class="cls-16" x="123.98" y="39.36" width="7.83" height="19.22"/><line class="cls-18" x1="126.9" y1="39.36" x2="126.9" y2="58.58"/><line class="cls-18" x1="128.65" y1="39.36" x2="128.65" y2="58.58"/><line class="cls-19" x1="123.98" y1="44.5" x2="131.81" y2="44.5"/><line class="cls-19" x1="123.98" y1="48.97" x2="131.81" y2="48.97"/><line class="cls-19" x1="123.98" y1="53.5" x2="131.81" y2="53.5"/><rect class="cls-4" x="61.69" y="79.17" width="12.94" height="18.06"/><rect class="cls-20" x="64.56" y="81.98" width="2.69" height="7.37"/><rect class="cls-20" x="69.63" y="81.98" width="2.69" height="7.37"/><polygon class="cls-2" points="56.13 103.54 55.13 103.54 55.13 100 61.36 94.48 62.02 95.23 56.13 100.45 56.13 103.54"/><polygon class="cls-2" points="81.19 103.54 80.19 103.54 80.19 100.45 74.29 95.23 74.96 94.48 81.19 100 81.19 103.54"/><rect class="cls-21" x="57.5" y="100.98" width="20.69" height="2.56"/><rect class="cls-22" x="59.63" y="99.01" width="16.94" height="1.97"/><rect class="cls-5" x="61.25" y="97.23" width="13.69" height="1.97"/><path class="cls-23" d="M488.29,529.31a8.86,8.86,0,0,0-8.68,9V556.4h17.81V538.34A9.25,9.25,0,0,0,488.29,529.31Z" transform="translate(-420.36 -481.4)"/><path class="cls-24" d="M497.8,556.77H479.24V538.34a9.24,9.24,0,0,1,9.05-9.4,9.58,9.58,0,0,1,9.51,9.4v18.43ZM480,556h17.06V538.34a8.82,8.82,0,0,0-8.76-8.65,8.49,8.49,0,0,0-8.3,8.65V556Z" transform="translate(-420.36 -481.4)"/><rect class="cls-24" x="59.11" y="57.17" width="17.81" height="0.75"/><rect class="cls-24" x="59.11" y="61.3" width="17.81" height="0.75"/><rect class="cls-24" x="59.11" y="65.43" width="17.81" height="0.75"/><rect class="cls-24" x="59.11" y="69.57" width="17.81" height="0.75"/><line class="cls-23" x1="67.93" y1="47.92" x2="67.93" y2="75"/><rect class="cls-24" x="67.55" y="47.92" width="0.75" height="27.08"/><line class="cls-23" x1="67.75" y1="57.54" x2="61.32" y2="51.11"/><rect class="cls-24" x="484.53" y="531.18" width="0.75" height="9.09" transform="translate(-657.16 18.42) rotate(-45)"/><line class="cls-23" x1="67.75" y1="57.54" x2="74.39" y2="50.9"/><rect class="cls-24" x="486.74" y="535.24" width="9.39" height="0.75" transform="translate(-655.14 22.31) rotate(-44.95)"/><path class="cls-24" d="M492.05,556.77h-7.37V538.65a3.69,3.69,0,0,1,7.38,0v18.13Zm-6.62-.75h5.88V538.65a2.94,2.94,0,0,0-5.87,0V556Z" transform="translate(-420.36 -481.4)"/><path class="cls-24" d="M495,556.77H482.05V537.91a6.19,6.19,0,0,1,6.31-6c3.59,0,6.63,2.76,6.63,6v18.86ZM482.8,556h11.44V537.91c0-2.87-2.69-5.29-5.87-5.29a5.44,5.44,0,0,0-5.56,5.29V556Z" transform="translate(-420.36 -481.4)"/><circle class="cls-25" cx="67.93" cy="15.28" r="4.39"/></svg>