<svg id="Layer_7" data-name="Layer 7" xmlns="http://www.w3.org/2000/svg" viewBox="0 0 208.54 117.58"><defs><style>.cls-1{fill:#939290;}.cls-2{fill:#b86d2c;}.cls-3{fill:#a8adb1;}.cls-4{fill:#ffff91;}.cls-5{fill:#585958;}.cls-6{fill:#fff;}.cls-7{fill:#102c3b;}.cls-10,.cls-8{fill:#eff8fc;}.cls-8{stroke:#97959d;stroke-width:0.5px;}.cls-12,.cls-8{stroke-miterlimit:10;}.cls-9{fill:#f2f8fb;}.cls-11{fill:#9c9c9a;}.cls-12{fill:#f6f9ff;stroke:#57566f;stroke-width:0.75px;}</style></defs><title>house6</title><polygon class="cls-1" points="129.08 7 129.08 32.81 112.54 23.25 112.54 77.75 96 77.75 96 23.25 78.33 33.47 78.33 7 89.58 7 89.58 0 101.95 0 101.95 7 129.08 7"/><polygon class="cls-2" points="96 23.25 96 117.58 0 117.58 0 78.75 78.33 33.47 96 23.25"/><polygon class="cls-2" points="208.54 78.75 208.54 117.58 112.54 117.58 112.54 23.25 129.08 32.81 208.54 78.75"/><rect class="cls-3" x="59.52" y="77.75" width="89.43" height="4.23"/><path class="cls-4" d="M1421.44,102.2l-1.67-1.1c11.53-17.49,26-16.62,27.1-16.57l-0.15,2C1446.1,86.5,1432.29,85.74,1421.44,102.2Z" transform="translate(-1350.82 -13.31)"/><path class="cls-4" d="M1488.3,102.2l1.67-1.1c-11.53-17.49-26-16.62-26.61-16.57l0.15,2C1463.65,86.5,1477.46,85.74,1488.3,102.2Z" transform="translate(-1350.82 -13.31)"/><rect class="cls-5" x="84.17" y="81.98" width="39.17" height="35.6"/><rect class="cls-6" y="96.63" width="84.17" height="2"/><rect class="cls-6" y="100.45" width="84.17" height="2"/><rect class="cls-6" x="123.34" y="96.63" width="84.17" height="2"/><rect class="cls-6" x="123.34" y="100.45" width="84.17" height="2"/><circle class="cls-7" cx="21.29" cy="80.45" r="1.53"/><rect class="cls-8" x="150.59" y="90.08" width="9.92" height="9.92"/><rect class="cls-8" x="160.54" y="90.08" width="9.92" height="9.92"/><rect class="cls-8" x="170.49" y="90.08" width="9.92" height="9.92"/><rect class="cls-8" x="180.44" y="90.08" width="9.92" height="9.92"/><rect class="cls-8" x="190.4" y="90.08" width="9.92" height="9.92"/><rect class="cls-9" x="97.8" y="59.13" width="12.88" height="16.88"/><rect class="cls-10" x="97.26" y="81.58" width="26.07" height="9.25"/><rect class="cls-11" x="104.24" y="93.17" width="19.1" height="24.42"/><rect class="cls-10" x="58.67" y="90.17" width="10.28" height="10.28"/><rect class="cls-12" x="9.5" y="88.88" width="23.58" height="23.7"/><line class="cls-12" x1="9.5" y1="100.73" x2="33.09" y2="100.73"/><line class="cls-12" x1="21.29" y1="88.88" x2="21.29" y2="112.58"/></svg>